<svg xmlns="http://www.w3.org/2000/svg" viewBox="0 0 800 400" width="800" height="400" class="chartml-bar"><g class="axes"><g transform="translate(86,0)"><line x1="0" y1="360" x2="684" y2="360" stroke="#ccc" stroke-width="1" class="axis-line"/></g><g transform="translate(86,0)"><line x1="73.76470588235293" y1="360" x2="73.76470588235293" y2="365" stroke="#999" stroke-width="1" class="tick"/></g><g transform="translate(86,0)"><text x="73.76470588235293" y="378" text-anchor="middle" font-family="Inter, Liberation Sans, Arial, sans-serif" font-size="11px" fill="#666" class="tick-label">North America</text></g><g transform="translate(86,0)"><line x1="207.88235294117644" y1="360" x2="207.88235294117644" y2="365" stroke="#999" stroke-width="1" class="tick"/></g><g transform="translate(86,0)"><text x="207.88235294117644" y="378" text-anchor="middle" font-family="Inter, Liberation Sans, Arial, sans-serif" font-size="11px" fill="#666" class="tick-label">Europe</text></g><g transform="translate(86,0)"><line x1="342" y1="360" x2="342" y2="365" stroke="#999" stroke-width="1" class="tick"/></g><g transform="translate(86,0)"><text x="342" y="378" text-anchor="middle" font-family="Inter, Liberation Sans, Arial, sans-serif" font-size="11px" fill="#666" class="tick-label">Asia Pacific</text></g><g transform="translate(86,0)"><line x1="476.1176470588234" y1="360" x2="476.1176470588234" y2="365" stroke="#999" stroke-width="1" class="tick"/></g><g transform="translate(86,0)"><text x="476.1176470588234" y="378" text-anchor="middle" font-family="Inter, Liberation Sans, Arial, sans-serif" font-size="11px" fill="#666" class="tick-label">Latin America</text></g><g transform="translate(86,0)"><line x1="610.235294117647" y1="360" x2="610.235294117647" y2="365" stroke="#999" stroke-width="1" class="tick"/></g><g transform="translate(86,0)"><text x="610.235294117647" y="378" text-anchor="middle" font-family="Inter, Liberation Sans, Arial, sans-serif" font-size="11px" fill="#666" class="tick-label">Middle East</text></g><g transform="translate(0,20)"><line x1="86" y1="0" x2="86" y2="340" stroke="#ccc" stroke-width="1" class="axis-line"/></g><g transform="translate(0,20)"><line x1="86" y1="340" x2="770" y2="340" stroke="#e0e0e0" stroke-width="1" class="grid-line grid-line-y"/></g><g transform="translate(0,20)"><line x1="81" y1="340" x2="86" y2="340" stroke="#999" stroke-width="1" class="tick"/></g><g transform="translate(0,20)"><text x="78" y="340" text-anchor="end" font-family="Inter, Liberation Sans, Arial, sans-serif" dominant-baseline="middle" font-size="11px" fill="#666" class="tick-label">$0M</text></g><g transform="translate(0,20)"><line x1="86" y1="272" x2="770" y2="272" stroke="#e0e0e0" stroke-width="1" class="grid-line grid-line-y"/></g><g transform="translate(0,20)"><line x1="81" y1="272" x2="86" y2="272" stroke="#999" stroke-width="1" class="tick"/></g><g transform="translate(0,20)"><text x="78" y="272" text-anchor="end" font-family="Inter, Liberation Sans, Arial, sans-serif" dominant-baseline="middle" font-size="11px" fill="#666" class="tick-label">$2M</text></g><g transform="translate(0,20)"><line x1="86" y1="204" x2="770" y2="204" stroke="#e0e0e0" stroke-width="1" class="grid-line grid-line-y"/></g><g transform="translate(0,20)"><line x1="81" y1="204" x2="86" y2="204" stroke="#999" stroke-width="1" class="tick"/></g><g transform="translate(0,20)"><text x="78" y="204" text-anchor="end" font-family="Inter, Liberation Sans, Arial, sans-serif" dominant-baseline="middle" font-size="11px" fill="#666" class="tick-label">$4M</text></g><g transform="translate(0,20)"><line x1="86" y1="136" x2="770" y2="136" stroke="#e0e0e0" stroke-width="1" class="grid-line grid-line-y"/></g><g transform="translate(0,20)"><line x1="81" y1="136" x2="86" y2="136" stroke="#999" stroke-width="1" class="tick"/></g><g transform="translate(0,20)"><text x="78" y="136" text-anchor="end" font-family="Inter, Liberation Sans, Arial, sans-serif" dominant-baseline="middle" font-size="11px" fill="#666" class="tick-label">$6M</text></g><g transform="translate(0,20)"><line x1="86" y1="68" x2="770" y2="68" stroke="#e0e0e0" stroke-width="1" class="grid-line grid-line-y"/></g><g transform="translate(0,20)"><line x1="81" y1="68" x2="86" y2="68" stroke="#999" stroke-width="1" class="tick"/></g><g transform="translate(0,20)"><text x="78" y="68" text-anchor="end" font-family="Inter, Liberation Sans, Arial, sans-serif" dominant-baseline="middle" font-size="11px" fill="#666" class="tick-label">$8M</text></g><g transform="translate(0,20)"><line x1="86" y1="0" x2="770" y2="0" stroke="#e0e0e0" stroke-width="1" class="grid-line grid-line-y"/></g><g transform="translate(0,20)"><line x1="81" y1="0" x2="86" y2="0" stroke="#999" stroke-width="1" class="tick"/></g><g transform="translate(0,20)"><text x="78" y="0" text-anchor="end" font-family="Inter, Liberation Sans, Arial, sans-serif" dominant-baseline="middle" font-size="11px" fill="#666" class="tick-label">$10M</text></g><g transform="translate(0,20)"><text x="10" y="170" text-anchor="middle" font-family="Inter, Liberation Sans, Arial, sans-serif" dominant-baseline="middle" transform="rotate(-90,10,170)" font-size="12px" fill="#666" class="axis-label">Revenue</text></g></g><g class="bars" transform="translate(86,20)"><rect x="26.30769230769231" y="51" width="105.23076923076924" height="289" fill="#2E7D9A" style="transform-origin: 78.92307692307693px 340px;" class="bar" data-label="North America" data-value="$8,500,000"/><rect x="157.84615384615387" y="163.2" width="105.23076923076924" height="176.8" fill="#2E7D9A" style="transform-origin: 210.46153846153848px 340px;" class="bar" data-label="Europe" data-value="$5,200,000"/><rect x="289.3846153846154" y="214.2" width="105.23076923076924" height="125.80000000000001" fill="#2E7D9A" style="transform-origin: 342.00000000000006px 340px;" class="bar" data-label="Asia Pacific" data-value="$3,700,000"/><rect x="420.92307692307696" y="268.6" width="105.23076923076924" height="71.39999999999998" fill="#2E7D9A" style="transform-origin: 473.5384615384616px 340px;" class="bar" data-label="Latin America" data-value="$2,100,000"/><rect x="552.4615384615385" y="299.2" width="105.23076923076924" height="40.80000000000001" fill="#2E7D9A" style="transform-origin: 605.0769230769231px 340px;" class="bar" data-label="Middle East" data-value="$1,200,000"/></g></svg>