<svg xmlns="http://www.w3.org/2000/svg" viewBox="0 0 800 400" width="800" height="400" class="chartml-bar"><g class="axes"><g transform="translate(61,0)"><line x1="0" y1="332" x2="709" y2="332" stroke="#ccc" stroke-width="1" class="axis-line"/></g><g transform="translate(61,0)"><line x1="95.10975609756099" y1="332" x2="95.10975609756099" y2="337" stroke="#999" stroke-width="1" class="tick"/></g><g transform="translate(61,0)"><text x="95.10975609756099" y="350" text-anchor="middle" font-family="Inter, Liberation Sans, Arial, sans-serif" font-size="11px" fill="#666" class="tick-label">Q1</text></g><g transform="translate(61,0)"><line x1="268.0365853658537" y1="332" x2="268.0365853658537" y2="337" stroke="#999" stroke-width="1" class="tick"/></g><g transform="translate(61,0)"><text x="268.0365853658537" y="350" text-anchor="middle" font-family="Inter, Liberation Sans, Arial, sans-serif" font-size="11px" fill="#666" class="tick-label">Q2</text></g><g transform="translate(61,0)"><line x1="440.9634146341464" y1="332" x2="440.9634146341464" y2="337" stroke="#999" stroke-width="1" class="tick"/></g><g transform="translate(61,0)"><text x="440.9634146341464" y="350" text-anchor="middle" font-family="Inter, Liberation Sans, Arial, sans-serif" font-size="11px" fill="#666" class="tick-label">Q3</text></g><g transform="translate(61,0)"><line x1="613.890243902439" y1="332" x2="613.890243902439" y2="337" stroke="#999" stroke-width="1" class="tick"/></g><g transform="translate(61,0)"><text x="613.890243902439" y="350" text-anchor="middle" font-family="Inter, Liberation Sans, Arial, sans-serif" font-size="11px" fill="#666" class="tick-label">Q4</text></g><g transform="translate(0,20)"><line x1="61" y1="0" x2="61" y2="312" stroke="#ccc" stroke-width="1" class="axis-line"/></g><g transform="translate(0,20)"><line x1="61" y1="312" x2="770" y2="312" stroke="#e0e0e0" stroke-width="1" class="grid-line grid-line-y"/></g><g transform="translate(0,20)"><line x1="56" y1="312" x2="61" y2="312" stroke="#999" stroke-width="1" class="tick"/></g><g transform="translate(0,20)"><text x="53" y="312" text-anchor="end" font-family="Inter, Liberation Sans, Arial, sans-serif" dominant-baseline="middle" font-size="11px" fill="#666" class="tick-label">0</text></g><g transform="translate(0,20)"><line x1="61" y1="249.6" x2="770" y2="249.6" stroke="#e0e0e0" stroke-width="1" class="grid-line grid-line-y"/></g><g transform="translate(0,20)"><line x1="56" y1="249.6" x2="61" y2="249.6" stroke="#999" stroke-width="1" class="tick"/></g><g transform="translate(0,20)"><text x="53" y="249.6" text-anchor="end" font-family="Inter, Liberation Sans, Arial, sans-serif" dominant-baseline="middle" font-size="11px" fill="#666" class="tick-label">100,000</text></g><g transform="translate(0,20)"><line x1="61" y1="187.2" x2="770" y2="187.2" stroke="#e0e0e0" stroke-width="1" class="grid-line grid-line-y"/></g><g transform="translate(0,20)"><line x1="56" y1="187.2" x2="61" y2="187.2" stroke="#999" stroke-width="1" class="tick"/></g><g transform="translate(0,20)"><text x="53" y="187.2" text-anchor="end" font-family="Inter, Liberation Sans, Arial, sans-serif" dominant-baseline="middle" font-size="11px" fill="#666" class="tick-label">200,000</text></g><g transform="translate(0,20)"><line x1="61" y1="124.80000000000001" x2="770" y2="124.80000000000001" stroke="#e0e0e0" stroke-width="1" class="grid-line grid-line-y"/></g><g transform="translate(0,20)"><line x1="56" y1="124.80000000000001" x2="61" y2="124.80000000000001" stroke="#999" stroke-width="1" class="tick"/></g><g transform="translate(0,20)"><text x="53" y="124.80000000000001" text-anchor="end" font-family="Inter, Liberation Sans, Arial, sans-serif" dominant-baseline="middle" font-size="11px" fill="#666" class="tick-label">300,000</text></g><g transform="translate(0,20)"><line x1="61" y1="62.39999999999998" x2="770" y2="62.39999999999998" stroke="#e0e0e0" stroke-width="1" class="grid-line grid-line-y"/></g><g transform="translate(0,20)"><line x1="56" y1="62.39999999999998" x2="61" y2="62.39999999999998" stroke="#999" stroke-width="1" class="tick"/></g><g transform="translate(0,20)"><text x="53" y="62.39999999999998" text-anchor="end" font-family="Inter, Liberation Sans, Arial, sans-serif" dominant-baseline="middle" font-size="11px" fill="#666" class="tick-label">400,000</text></g><g transform="translate(0,20)"><line x1="61" y1="0" x2="770" y2="0" stroke="#e0e0e0" stroke-width="1" class="grid-line grid-line-y"/></g><g transform="translate(0,20)"><line x1="56" y1="0" x2="61" y2="0" stroke="#999" stroke-width="1" class="tick"/></g><g transform="translate(0,20)"><text x="53" y="0" text-anchor="end" font-family="Inter, Liberation Sans, Arial, sans-serif" dominant-baseline="middle" font-size="11px" fill="#666" class="tick-label">500,000</text></g></g><g class="bars" transform="translate(61,20)"><rect x="33.76190476190476" y="196.56" width="135.04761904761904" height="115.44" fill="#2E7D9A" style="transform-origin: 33.76190476190476px 254.28px;" class="bar" data-label="Q1" data-value="185,000" data-series="Hardware"/><rect x="33.76190476190476" y="119.184" width="135.04761904761904" height="77.376" fill="#D4A445" style="transform-origin: 33.76190476190476px 157.872px;" class="bar" data-label="Q1" data-value="124,000" data-series="Software"/><rect x="33.76190476190476" y="77.376" width="135.04761904761904" height="41.80799999999999" fill="#4A7C59" style="transform-origin: 33.76190476190476px 98.28px;" class="bar" data-label="Q1" data-value="67,000" data-series="Services"/><rect x="202.57142857142856" y="188.44799999999998" width="135.04761904761904" height="123.55200000000002" fill="#2E7D9A" style="transform-origin: 202.57142857142856px 250.224px;" class="bar" data-label="Q2" data-value="198,000" data-series="Hardware"/><rect x="202.57142857142856" y="100.464" width="135.04761904761904" height="87.98399999999998" fill="#D4A445" style="transform-origin: 202.57142857142856px 144.456px;" class="bar" data-label="Q2" data-value="141,000" data-series="Software"/><rect x="202.57142857142856" y="54.912000000000035" width="135.04761904761904" height="45.551999999999964" fill="#4A7C59" style="transform-origin: 202.57142857142856px 77.68800000000002px;" class="bar" data-label="Q2" data-value="73,000" data-series="Services"/><rect x="371.38095238095235" y="202.176" width="135.04761904761904" height="109.82400000000001" fill="#2E7D9A" style="transform-origin: 371.38095238095235px 257.08799999999997px;" class="bar" data-label="Q3" data-value="176,000" data-series="Hardware"/><rect x="371.38095238095235" y="102.95999999999998" width="135.04761904761904" height="99.21600000000001" fill="#D4A445" style="transform-origin: 371.38095238095235px 152.56799999999998px;" class="bar" data-label="Q3" data-value="159,000" data-series="Software"/><rect x="371.38095238095235" y="52.416" width="135.04761904761904" height="50.54399999999998" fill="#4A7C59" style="transform-origin: 371.38095238095235px 77.68799999999999px;" class="bar" data-label="Q3" data-value="81,000" data-series="Services"/><rect x="540.1904761904761" y="174.096" width="135.04761904761904" height="137.904" fill="#2E7D9A" style="transform-origin: 607.7142857142857px 312px;" class="bar" data-label="Q4" data-value="221,000" data-series="Hardware"/><rect x="540.1904761904761" y="59.903999999999996" width="135.04761904761904" height="114.19200000000001" fill="#D4A445" style="transform-origin: 540.1904761904761px 117px;" class="bar" data-label="Q4" data-value="183,000" data-series="Software"/><rect x="540.1904761904761" y="2.495999999999981" width="135.04761904761904" height="57.408000000000015" fill="#4A7C59" style="transform-origin: 540.1904761904761px 31.19999999999999px;" class="bar" data-label="Q4" data-value="92,000" data-series="Services"/></g><g class="legend"><rect x="276.5" y="372" width="12" height="12" fill="#2E7D9A" style="transform-origin: 282.5px 384px;" class="legend-symbol"/><text x="294.5" y="382" text-anchor="start" font-family="Inter, Liberation Sans, Arial, sans-serif" font-size="11px" fill="#333" class="legend-label">Hardware</text><rect x="360.5" y="372" width="12" height="12" fill="#D4A445" style="transform-origin: 366.5px 384px;" class="legend-symbol"/><text x="378.5" y="382" text-anchor="start" font-family="Inter, Liberation Sans, Arial, sans-serif" font-size="11px" fill="#333" class="legend-label">Software</text><rect x="442.5" y="372" width="12" height="12" fill="#4A7C59" style="transform-origin: 448.5px 384px;" class="legend-symbol"/><text x="460.5" y="382" text-anchor="start" font-family="Inter, Liberation Sans, Arial, sans-serif" font-size="11px" fill="#333" class="legend-label">Services</text></g></svg>