<svg xmlns="http://www.w3.org/2000/svg" viewBox="0 0 800 400" width="800" height="400" class="chartml-bar"><g class="axes"><g transform="translate(47,0)"><line x1="0" y1="360" x2="723" y2="360" stroke="#ccc" stroke-width="1" class="axis-line"/></g><g transform="translate(47,0)"><line x1="77.97058823529412" y1="360" x2="77.97058823529412" y2="365" stroke="#999" stroke-width="1" class="tick"/></g><g transform="translate(47,0)"><text x="77.97058823529412" y="378" text-anchor="middle" font-family="Inter, Liberation Sans, Arial, sans-serif" font-size="11px" fill="#666" class="tick-label">Engineering</text></g><g transform="translate(47,0)"><line x1="219.73529411764704" y1="360" x2="219.73529411764704" y2="365" stroke="#999" stroke-width="1" class="tick"/></g><g transform="translate(47,0)"><text x="219.73529411764704" y="378" text-anchor="middle" font-family="Inter, Liberation Sans, Arial, sans-serif" font-size="11px" fill="#666" class="tick-label">Marketing</text></g><g transform="translate(47,0)"><line x1="361.5" y1="360" x2="361.5" y2="365" stroke="#999" stroke-width="1" class="tick"/></g><g transform="translate(47,0)"><text x="361.5" y="378" text-anchor="middle" font-family="Inter, Liberation Sans, Arial, sans-serif" font-size="11px" fill="#666" class="tick-label">Sales</text></g><g transform="translate(47,0)"><line x1="503.2647058823529" y1="360" x2="503.2647058823529" y2="365" stroke="#999" stroke-width="1" class="tick"/></g><g transform="translate(47,0)"><text x="503.2647058823529" y="378" text-anchor="middle" font-family="Inter, Liberation Sans, Arial, sans-serif" font-size="11px" fill="#666" class="tick-label">Operations</text></g><g transform="translate(47,0)"><line x1="645.0294117647057" y1="360" x2="645.0294117647057" y2="365" stroke="#999" stroke-width="1" class="tick"/></g><g transform="translate(47,0)"><text x="645.0294117647057" y="378" text-anchor="middle" font-family="Inter, Liberation Sans, Arial, sans-serif" font-size="11px" fill="#666" class="tick-label">HR</text></g><g transform="translate(0,20)"><line x1="47" y1="0" x2="47" y2="340" stroke="#ccc" stroke-width="1" class="axis-line"/></g><g transform="translate(0,20)"><line x1="47" y1="340" x2="770" y2="340" stroke="#e0e0e0" stroke-width="1" class="grid-line grid-line-y"/></g><g transform="translate(0,20)"><line x1="42" y1="340" x2="47" y2="340" stroke="#999" stroke-width="1" class="tick"/></g><g transform="translate(0,20)"><text x="39" y="340" text-anchor="end" font-family="Inter, Liberation Sans, Arial, sans-serif" dominant-baseline="middle" font-size="11px" fill="#666" class="tick-label">0</text></g><g transform="translate(0,20)"><line x1="47" y1="272" x2="770" y2="272" stroke="#e0e0e0" stroke-width="1" class="grid-line grid-line-y"/></g><g transform="translate(0,20)"><line x1="42" y1="272" x2="47" y2="272" stroke="#999" stroke-width="1" class="tick"/></g><g transform="translate(0,20)"><text x="39" y="272" text-anchor="end" font-family="Inter, Liberation Sans, Arial, sans-serif" dominant-baseline="middle" font-size="11px" fill="#666" class="tick-label">200</text></g><g transform="translate(0,20)"><line x1="47" y1="204" x2="770" y2="204" stroke="#e0e0e0" stroke-width="1" class="grid-line grid-line-y"/></g><g transform="translate(0,20)"><line x1="42" y1="204" x2="47" y2="204" stroke="#999" stroke-width="1" class="tick"/></g><g transform="translate(0,20)"><text x="39" y="204" text-anchor="end" font-family="Inter, Liberation Sans, Arial, sans-serif" dominant-baseline="middle" font-size="11px" fill="#666" class="tick-label">400</text></g><g transform="translate(0,20)"><line x1="47" y1="136" x2="770" y2="136" stroke="#e0e0e0" stroke-width="1" class="grid-line grid-line-y"/></g><g transform="translate(0,20)"><line x1="42" y1="136" x2="47" y2="136" stroke="#999" stroke-width="1" class="tick"/></g><g transform="translate(0,20)"><text x="39" y="136" text-anchor="end" font-family="Inter, Liberation Sans, Arial, sans-serif" dominant-baseline="middle" font-size="11px" fill="#666" class="tick-label">600</text></g><g transform="translate(0,20)"><line x1="47" y1="68" x2="770" y2="68" stroke="#e0e0e0" stroke-width="1" class="grid-line grid-line-y"/></g><g transform="translate(0,20)"><line x1="42" y1="68" x2="47" y2="68" stroke="#999" stroke-width="1" class="tick"/></g><g transform="translate(0,20)"><text x="39" y="68" text-anchor="end" font-family="Inter, Liberation Sans, Arial, sans-serif" dominant-baseline="middle" font-size="11px" fill="#666" class="tick-label">800</text></g><g transform="translate(0,20)"><line x1="47" y1="0" x2="770" y2="0" stroke="#e0e0e0" stroke-width="1" class="grid-line grid-line-y"/></g><g transform="translate(0,20)"><line x1="42" y1="0" x2="47" y2="0" stroke="#999" stroke-width="1" class="tick"/></g><g transform="translate(0,20)"><text x="39" y="0" text-anchor="end" font-family="Inter, Liberation Sans, Arial, sans-serif" dominant-baseline="middle" font-size="11px" fill="#666" class="tick-label">1,000</text></g><g transform="translate(0,20)"><text x="10" y="170" text-anchor="middle" font-family="Inter, Liberation Sans, Arial, sans-serif" dominant-baseline="middle" transform="rotate(-90,10,170)" font-size="12px" fill="#666" class="axis-label">Total Revenue (USD, Thousands)</text></g></g><g class="bars" transform="translate(47,20)"><rect x="27.80769230769231" y="61.19999999999999" width="111.23076923076924" height="278.8" fill="#2E7D9A" style="transform-origin: 83.42307692307693px 340px;" class="bar" data-label="Engineering" data-value="820"/><rect x="166.84615384615387" y="156.39999999999998" width="111.23076923076924" height="183.60000000000002" fill="#2E7D9A" style="transform-origin: 222.46153846153848px 340px;" class="bar" data-label="Marketing" data-value="540"/><rect x="305.8846153846154" y="112.19999999999999" width="111.23076923076924" height="227.8" fill="#2E7D9A" style="transform-origin: 361.50000000000006px 340px;" class="bar" data-label="Sales" data-value="670"/><rect x="444.92307692307696" y="207.4" width="111.23076923076924" height="132.6" fill="#2E7D9A" style="transform-origin: 500.5384615384616px 340px;" class="bar" data-label="Operations" data-value="390"/><rect x="583.9615384615385" y="268.6" width="111.23076923076924" height="71.39999999999998" fill="#2E7D9A" style="transform-origin: 639.5769230769231px 340px;" class="bar" data-label="HR" data-value="210"/></g></svg>