<svg xmlns="http://www.w3.org/2000/svg" viewBox="0 0 800 400" width="800" height="400" class="chartml-area"><g class="axes"><g transform="translate(54,0)"><line x1="0" y1="332" x2="716" y2="332" stroke="#374151" stroke-width="1" class="axis-line"/></g><g transform="translate(54,0)"><line x1="64.55737704918032" y1="332" x2="64.55737704918032" y2="337" stroke="#374151" stroke-width="1" class="tick"/></g><g transform="translate(54,0)"><text x="64.55737704918032" y="350" text-anchor="middle" font-family="Inter, Liberation Sans, Arial, sans-serif" font-size="12px" fill="#6b7280" class="tick-label">Jan</text></g><g transform="translate(54,0)"><line x1="181.93442622950818" y1="332" x2="181.93442622950818" y2="337" stroke="#374151" stroke-width="1" class="tick"/></g><g transform="translate(54,0)"><text x="181.93442622950818" y="350" text-anchor="middle" font-family="Inter, Liberation Sans, Arial, sans-serif" font-size="12px" fill="#6b7280" class="tick-label">Feb</text></g><g transform="translate(54,0)"><line x1="299.311475409836" y1="332" x2="299.311475409836" y2="337" stroke="#374151" stroke-width="1" class="tick"/></g><g transform="translate(54,0)"><text x="299.311475409836" y="350" text-anchor="middle" font-family="Inter, Liberation Sans, Arial, sans-serif" font-size="12px" fill="#6b7280" class="tick-label">Mar</text></g><g transform="translate(54,0)"><line x1="416.68852459016387" y1="332" x2="416.68852459016387" y2="337" stroke="#374151" stroke-width="1" class="tick"/></g><g transform="translate(54,0)"><text x="416.68852459016387" y="350" text-anchor="middle" font-family="Inter, Liberation Sans, Arial, sans-serif" font-size="12px" fill="#6b7280" class="tick-label">Apr</text></g><g transform="translate(54,0)"><line x1="534.0655737704917" y1="332" x2="534.0655737704917" y2="337" stroke="#374151" stroke-width="1" class="tick"/></g><g transform="translate(54,0)"><text x="534.0655737704917" y="350" text-anchor="middle" font-family="Inter, Liberation Sans, Arial, sans-serif" font-size="12px" fill="#6b7280" class="tick-label">May</text></g><g transform="translate(54,0)"><line x1="651.4426229508197" y1="332" x2="651.4426229508197" y2="337" stroke="#374151" stroke-width="1" class="tick"/></g><g transform="translate(54,0)"><text x="651.4426229508197" y="350" text-anchor="middle" font-family="Inter, Liberation Sans, Arial, sans-serif" font-size="12px" fill="#6b7280" class="tick-label">Jun</text></g><g transform="translate(0,20)"><line x1="54" y1="0" x2="54" y2="312" stroke="#374151" stroke-width="1" class="axis-line"/></g><g transform="translate(0,20)"><line x1="54" y1="312" x2="770" y2="312" stroke="#e0e0e0" stroke-width="1" class="grid-line grid-line-y"/></g><g transform="translate(0,20)"><line x1="49" y1="312" x2="54" y2="312" stroke="#374151" stroke-width="1" class="tick"/></g><g transform="translate(0,20)"><text x="46" y="312" text-anchor="end" font-family="Inter, Liberation Sans, Arial, sans-serif" dominant-baseline="middle" font-size="12px" fill="#6b7280" class="tick-label">0</text></g><g transform="translate(0,20)"><line x1="54" y1="260" x2="770" y2="260" stroke="#e0e0e0" stroke-width="1" class="grid-line grid-line-y"/></g><g transform="translate(0,20)"><line x1="49" y1="260" x2="54" y2="260" stroke="#374151" stroke-width="1" class="tick"/></g><g transform="translate(0,20)"><text x="46" y="260" text-anchor="end" font-family="Inter, Liberation Sans, Arial, sans-serif" dominant-baseline="middle" font-size="12px" fill="#6b7280" class="tick-label">5,000</text></g><g transform="translate(0,20)"><line x1="54" y1="208" x2="770" y2="208" stroke="#e0e0e0" stroke-width="1" class="grid-line grid-line-y"/></g><g transform="translate(0,20)"><line x1="49" y1="208" x2="54" y2="208" stroke="#374151" stroke-width="1" class="tick"/></g><g transform="translate(0,20)"><text x="46" y="208" text-anchor="end" font-family="Inter, Liberation Sans, Arial, sans-serif" dominant-baseline="middle" font-size="12px" fill="#6b7280" class="tick-label">10,000</text></g><g transform="translate(0,20)"><line x1="54" y1="156" x2="770" y2="156" stroke="#e0e0e0" stroke-width="1" class="grid-line grid-line-y"/></g><g transform="translate(0,20)"><line x1="49" y1="156" x2="54" y2="156" stroke="#374151" stroke-width="1" class="tick"/></g><g transform="translate(0,20)"><text x="46" y="156" text-anchor="end" font-family="Inter, Liberation Sans, Arial, sans-serif" dominant-baseline="middle" font-size="12px" fill="#6b7280" class="tick-label">15,000</text></g><g transform="translate(0,20)"><line x1="54" y1="104" x2="770" y2="104" stroke="#e0e0e0" stroke-width="1" class="grid-line grid-line-y"/></g><g transform="translate(0,20)"><line x1="49" y1="104" x2="54" y2="104" stroke="#374151" stroke-width="1" class="tick"/></g><g transform="translate(0,20)"><text x="46" y="104" text-anchor="end" font-family="Inter, Liberation Sans, Arial, sans-serif" dominant-baseline="middle" font-size="12px" fill="#6b7280" class="tick-label">20,000</text></g><g transform="translate(0,20)"><line x1="54" y1="52" x2="770" y2="52" stroke="#e0e0e0" stroke-width="1" class="grid-line grid-line-y"/></g><g transform="translate(0,20)"><line x1="49" y1="52" x2="54" y2="52" stroke="#374151" stroke-width="1" class="tick"/></g><g transform="translate(0,20)"><text x="46" y="52" text-anchor="end" font-family="Inter, Liberation Sans, Arial, sans-serif" dominant-baseline="middle" font-size="12px" fill="#6b7280" class="tick-label">25,000</text></g><g transform="translate(0,20)"><line x1="54" y1="0" x2="770" y2="0" stroke="#e0e0e0" stroke-width="1" class="grid-line grid-line-y"/></g><g transform="translate(0,20)"><line x1="49" y1="0" x2="54" y2="0" stroke="#374151" stroke-width="1" class="tick"/></g><g transform="translate(0,20)"><text x="46" y="0" text-anchor="end" font-family="Inter, Liberation Sans, Arial, sans-serif" dominant-baseline="middle" font-size="12px" fill="#6b7280" class="tick-label">30,000</text></g></g><g class="legend"><rect x="335.5" y="372" width="12" height="12" fill="#2E7D9A" style="transform-origin: 341.5px 384px;" class="legend-symbol"/><text x="353.5" y="382" text-anchor="start" font-family="Inter, Liberation Sans, Arial, sans-serif" font-size="11px" fill="#6b7280" class="legend-label">Organic</text><rect x="409.5" y="372" width="12" height="12" fill="#D4A445" style="transform-origin: 415.5px 384px;" class="legend-symbol"/><text x="427.5" y="382" text-anchor="start" font-family="Inter, Liberation Sans, Arial, sans-serif" font-size="11px" fill="#6b7280" class="legend-label">Paid</text></g><g class="areas" transform="translate(54,20)"><path d="M64.557377,122.72C103.68306,117.173333 142.808743,113.36 181.934426,106.08C221.060109,98.8 260.185792,86.493333 299.311475,79.04C338.437158,71.586667 377.562842,67.253333 416.688525,61.36C455.814208,55.466667 494.939891,49.573333 534.065574,43.68C573.191257,37.786667 612.31694,31.893333 651.442623,26L651.442623,312C612.31694,312 573.191257,312 534.065574,312C494.939891,312 455.814208,312 416.688525,312C377.562842,312 338.437158,312 299.311475,312C260.185792,312 221.060109,312 181.934426,312C142.808743,312 103.68306,312 64.557377,312Z" fill="#2E7D9A" stroke="none" opacity="0.6" class="chartml-area-path" data-label="Organic" data-series="Organic"/><path d="M64.557377,122.72C103.68306,117.173333 142.808743,113.36 181.934426,106.08C221.060109,98.8 260.185792,86.493333 299.311475,79.04C338.437158,71.586667 377.562842,67.253333 416.688525,61.36C455.814208,55.466667 494.939891,49.573333 534.065574,43.68C573.191257,37.786667 612.31694,31.893333 651.442623,26" fill="none" stroke="#2E7D9A" stroke-width="2" class="chartml-line-path" data-label="Organic" data-series="Organic"/><path d="M64.557377,183.04C103.68306,177.146667 142.808743,174.72 181.934426,165.36C221.060109,156 260.185792,139.706667 299.311475,126.88C338.437158,114.053333 377.562842,97.76 416.688525,88.4C455.814208,79.04 494.939891,70.72 534.065574,70.72C573.191257,70.72 612.31694,95.68 651.442623,108.16L651.442623,312C612.31694,312 573.191257,312 534.065574,312C494.939891,312 455.814208,312 416.688525,312C377.562842,312 338.437158,312 299.311475,312C260.185792,312 221.060109,312 181.934426,312C142.808743,312 103.68306,312 64.557377,312Z" fill="#D4A445" stroke="none" opacity="0.6" class="chartml-area-path" data-label="Paid" data-series="Paid"/><path d="M64.557377,183.04C103.68306,177.146667 142.808743,174.72 181.934426,165.36C221.060109,156 260.185792,139.706667 299.311475,126.88C338.437158,114.053333 377.562842,97.76 416.688525,88.4C455.814208,79.04 494.939891,70.72 534.065574,70.72C573.191257,70.72 612.31694,95.68 651.442623,108.16" fill="none" stroke="#D4A445" stroke-width="2" class="chartml-line-path" data-label="Paid" data-series="Paid"/></g></svg>