<svg xmlns="http://www.w3.org/2000/svg" viewBox="0 0 800 400" width="800" height="400" class="chartml-chart chartml-scatter-chart"><g class="axes"><line x1="70" y1="343" x2="770" y2="343" stroke="#e0e0e0" stroke-width="1" class="grid-line"/><line x1="65" y1="343" x2="70" y2="343" stroke="#374151" stroke-width="1" class="tick"/><text x="62" y="343" text-anchor="end" font-family="Inter, Liberation Sans, Arial, sans-serif" dominant-baseline="middle" font-size="12px" fill="#6b7280" class="tick-label tick-value">25</text><line x1="70" y1="266.5" x2="770" y2="266.5" stroke="#e0e0e0" stroke-width="1" class="grid-line"/><line x1="65" y1="266.5" x2="70" y2="266.5" stroke="#374151" stroke-width="1" class="tick"/><text x="62" y="266.5" text-anchor="end" font-family="Inter, Liberation Sans, Arial, sans-serif" dominant-baseline="middle" font-size="12px" fill="#6b7280" class="tick-label tick-value">30</text><line x1="70" y1="190" x2="770" y2="190" stroke="#e0e0e0" stroke-width="1" class="grid-line"/><line x1="65" y1="190" x2="70" y2="190" stroke="#374151" stroke-width="1" class="tick"/><text x="62" y="190" text-anchor="end" font-family="Inter, Liberation Sans, Arial, sans-serif" dominant-baseline="middle" font-size="12px" fill="#6b7280" class="tick-label tick-value">35</text><line x1="70" y1="113.5" x2="770" y2="113.5" stroke="#e0e0e0" stroke-width="1" class="grid-line"/><line x1="65" y1="113.5" x2="70" y2="113.5" stroke="#374151" stroke-width="1" class="tick"/><text x="62" y="113.5" text-anchor="end" font-family="Inter, Liberation Sans, Arial, sans-serif" dominant-baseline="middle" font-size="12px" fill="#6b7280" class="tick-label tick-value">40</text><line x1="70" y1="37" x2="770" y2="37" stroke="#e0e0e0" stroke-width="1" class="grid-line"/><line x1="65" y1="37" x2="70" y2="37" stroke="#374151" stroke-width="1" class="tick"/><text x="62" y="37" text-anchor="end" font-family="Inter, Liberation Sans, Arial, sans-serif" dominant-baseline="middle" font-size="12px" fill="#6b7280" class="tick-label tick-value">45</text><line x1="105" y1="20" x2="105" y2="360" stroke="#e0e0e0" stroke-width="1" class="grid-line"/><line x1="105" y1="360" x2="105" y2="365" stroke="#374151" stroke-width="1" class="tick"/><text x="105" y="378" text-anchor="middle" font-family="Inter, Liberation Sans, Arial, sans-serif" font-size="12px" fill="#6b7280" class="tick-label tick-value">0K</text><line x1="168" y1="20" x2="168" y2="360" stroke="#e0e0e0" stroke-width="1" class="grid-line"/><line x1="168" y1="360" x2="168" y2="365" stroke="#374151" stroke-width="1" class="tick"/><text x="168" y="378" text-anchor="middle" font-family="Inter, Liberation Sans, Arial, sans-serif" font-size="12px" fill="#6b7280" class="tick-label tick-value">1K</text><line x1="231" y1="20" x2="231" y2="360" stroke="#e0e0e0" stroke-width="1" class="grid-line"/><line x1="231" y1="360" x2="231" y2="365" stroke="#374151" stroke-width="1" class="tick"/><text x="231" y="378" text-anchor="middle" font-family="Inter, Liberation Sans, Arial, sans-serif" font-size="12px" fill="#6b7280" class="tick-label tick-value">2K</text><line x1="294" y1="20" x2="294" y2="360" stroke="#e0e0e0" stroke-width="1" class="grid-line"/><line x1="294" y1="360" x2="294" y2="365" stroke="#374151" stroke-width="1" class="tick"/><text x="294" y="378" text-anchor="middle" font-family="Inter, Liberation Sans, Arial, sans-serif" font-size="12px" fill="#6b7280" class="tick-label tick-value">3K</text><line x1="357" y1="20" x2="357" y2="360" stroke="#e0e0e0" stroke-width="1" class="grid-line"/><line x1="357" y1="360" x2="357" y2="365" stroke="#374151" stroke-width="1" class="tick"/><text x="357" y="378" text-anchor="middle" font-family="Inter, Liberation Sans, Arial, sans-serif" font-size="12px" fill="#6b7280" class="tick-label tick-value">4K</text><line x1="420" y1="20" x2="420" y2="360" stroke="#e0e0e0" stroke-width="1" class="grid-line"/><line x1="420" y1="360" x2="420" y2="365" stroke="#374151" stroke-width="1" class="tick"/><text x="420" y="378" text-anchor="middle" font-family="Inter, Liberation Sans, Arial, sans-serif" font-size="12px" fill="#6b7280" class="tick-label tick-value">5K</text><line x1="483" y1="20" x2="483" y2="360" stroke="#e0e0e0" stroke-width="1" class="grid-line"/><line x1="483" y1="360" x2="483" y2="365" stroke="#374151" stroke-width="1" class="tick"/><text x="483" y="378" text-anchor="middle" font-family="Inter, Liberation Sans, Arial, sans-serif" font-size="12px" fill="#6b7280" class="tick-label tick-value">6K</text><line x1="546" y1="20" x2="546" y2="360" stroke="#e0e0e0" stroke-width="1" class="grid-line"/><line x1="546" y1="360" x2="546" y2="365" stroke="#374151" stroke-width="1" class="tick"/><text x="546" y="378" text-anchor="middle" font-family="Inter, Liberation Sans, Arial, sans-serif" font-size="12px" fill="#6b7280" class="tick-label tick-value">7K</text><line x1="609" y1="20" x2="609" y2="360" stroke="#e0e0e0" stroke-width="1" class="grid-line"/><line x1="609" y1="360" x2="609" y2="365" stroke="#374151" stroke-width="1" class="tick"/><text x="609" y="378" text-anchor="middle" font-family="Inter, Liberation Sans, Arial, sans-serif" font-size="12px" fill="#6b7280" class="tick-label tick-value">8K</text><line x1="672" y1="20" x2="672" y2="360" stroke="#e0e0e0" stroke-width="1" class="grid-line"/><line x1="672" y1="360" x2="672" y2="365" stroke="#374151" stroke-width="1" class="tick"/><text x="672" y="378" text-anchor="middle" font-family="Inter, Liberation Sans, Arial, sans-serif" font-size="12px" fill="#6b7280" class="tick-label tick-value">9K</text><line x1="735" y1="20" x2="735" y2="360" stroke="#e0e0e0" stroke-width="1" class="grid-line"/><line x1="735" y1="360" x2="735" y2="365" stroke="#374151" stroke-width="1" class="tick"/><text x="735" y="378" text-anchor="middle" font-family="Inter, Liberation Sans, Arial, sans-serif" font-size="12px" fill="#6b7280" class="tick-label tick-value">10K</text><line x1="70" y1="20" x2="70" y2="360" stroke="#374151" stroke-width="1" class="axis-line"/><line x1="70" y1="360" x2="770" y2="360" stroke="#374151" stroke-width="1" class="axis-line"/></g><g class="chartml-scatter-points"><circle cx="180.6" cy="37" r="5" fill="#2E7D9A" stroke="#ffffff" class="chartml-scatter-point dot-marker" data-label="1200" data-value="45" data-series="Organic"/><circle cx="319.20000000000005" cy="144.1" r="5" fill="#2E7D9A" stroke="#ffffff" class="chartml-scatter-point dot-marker" data-label="3400" data-value="38" data-series="Organic"/><circle cx="457.8" cy="235.9" r="5" fill="#2E7D9A" stroke="#ffffff" class="chartml-scatter-point dot-marker" data-label="5600" data-value="32" data-series="Organic"/><circle cx="596.4000000000001" cy="297.1" r="5" fill="#2E7D9A" stroke="#ffffff" class="chartml-scatter-point dot-marker" data-label="7800" data-value="28" data-series="Organic"/><circle cx="684.6" cy="343" r="5" fill="#2E7D9A" stroke="#ffffff" class="chartml-scatter-point dot-marker" data-label="9200" data-value="25" data-series="Organic"/><circle cx="237.29999999999998" cy="82.90000000000003" r="5" fill="#2E7D9A" stroke="#ffffff" class="chartml-scatter-point dot-marker" data-label="2100" data-value="42" data-series="Organic"/></g></svg>