<svg xmlns="http://www.w3.org/2000/svg" viewBox="0 0 800 400" width="800" height="400" class="chartml-bar"><g class="axes"><g transform="translate(72,0)"><line x1="0" y1="252" x2="698" y2="252" stroke="#374151" stroke-width="1" class="axis-line"/></g><g transform="translate(72,0)"><line x1="47.39506172839507" y1="252" x2="47.39506172839507" y2="257" stroke="#374151" stroke-width="1" class="tick"/></g><g transform="translate(72,0)"><text x="47.39506172839507" y="262" text-anchor="end" font-family="Inter, Liberation Sans, Arial, sans-serif" transform="rotate(-45,47.39506172839507,262)" font-size="12px" fill="#6b7280" class="tick-label axis-label">Enterprise Resource Planning</text></g><g transform="translate(72,0)"><line x1="133.5679012345679" y1="252" x2="133.5679012345679" y2="257" stroke="#374151" stroke-width="1" class="tick"/></g><g transform="translate(72,0)"><text x="133.5679012345679" y="262" text-anchor="end" font-family="Inter, Liberation Sans, Arial, sans-serif" transform="rotate(-45,133.5679012345679,262)" font-size="12px" fill="#6b7280" class="tick-label axis-label">Customer Relationship Mgmt</text></g><g transform="translate(72,0)"><line x1="219.74074074074076" y1="252" x2="219.74074074074076" y2="257" stroke="#374151" stroke-width="1" class="tick"/></g><g transform="translate(72,0)"><text x="219.74074074074076" y="262" text-anchor="end" font-family="Inter, Liberation Sans, Arial, sans-serif" transform="rotate(-45,219.74074074074076,262)" font-size="12px" fill="#6b7280" class="tick-label axis-label">Supply Chain Management</text></g><g transform="translate(72,0)"><line x1="305.91358024691357" y1="252" x2="305.91358024691357" y2="257" stroke="#374151" stroke-width="1" class="tick"/></g><g transform="translate(72,0)"><text x="305.91358024691357" y="262" text-anchor="end" font-family="Inter, Liberation Sans, Arial, sans-serif" transform="rotate(-45,305.91358024691357,262)" font-size="12px" fill="#6b7280" class="tick-label axis-label">Human Capital Management</text></g><g transform="translate(72,0)"><line x1="392.08641975308643" y1="252" x2="392.08641975308643" y2="257" stroke="#374151" stroke-width="1" class="tick"/></g><g transform="translate(72,0)"><text x="392.08641975308643" y="262" text-anchor="end" font-family="Inter, Liberation Sans, Arial, sans-serif" transform="rotate(-45,392.08641975308643,262)" font-size="12px" fill="#6b7280" class="tick-label axis-label">Business Intelligence Suite</text></g><g transform="translate(72,0)"><line x1="478.2592592592593" y1="252" x2="478.2592592592593" y2="257" stroke="#374151" stroke-width="1" class="tick"/></g><g transform="translate(72,0)"><text x="478.2592592592593" y="262" text-anchor="end" font-family="Inter, Liberation Sans, Arial, sans-serif" transform="rotate(-45,478.2592592592593,262)" font-size="12px" fill="#6b7280" class="tick-label axis-label">Content Management System</text></g><g transform="translate(72,0)"><line x1="564.4320987654322" y1="252" x2="564.4320987654322" y2="257" stroke="#374151" stroke-width="1" class="tick"/></g><g transform="translate(72,0)"><text x="564.4320987654322" y="262" text-anchor="end" font-family="Inter, Liberation Sans, Arial, sans-serif" transform="rotate(-45,564.4320987654322,262)" font-size="12px" fill="#6b7280" class="tick-label axis-label">Project Portfolio Manager</text></g><g transform="translate(72,0)"><line x1="650.6049382716051" y1="252" x2="650.6049382716051" y2="257" stroke="#374151" stroke-width="1" class="tick"/></g><g transform="translate(72,0)"><text x="650.6049382716051" y="262" text-anchor="end" font-family="Inter, Liberation Sans, Arial, sans-serif" transform="rotate(-45,650.6049382716051,262)" font-size="12px" fill="#6b7280" class="tick-label axis-label">Identity &amp; Access Control</text></g><g transform="translate(0,20)"><line x1="72" y1="0" x2="72" y2="232" stroke="#374151" stroke-width="1" class="axis-line"/></g><g transform="translate(0,20)"><line x1="72" y1="232" x2="770" y2="232" stroke="#e0e0e0" stroke-width="1" class="grid-line grid-line-y"/></g><g transform="translate(0,20)"><line x1="67" y1="232" x2="72" y2="232" stroke="#374151" stroke-width="1" class="tick"/></g><g transform="translate(0,20)"><text x="64" y="232" text-anchor="end" font-family="Inter, Liberation Sans, Arial, sans-serif" dominant-baseline="middle" font-size="12px" fill="#6b7280" class="tick-label tick-value">0</text></g><g transform="translate(0,20)"><line x1="72" y1="174" x2="770" y2="174" stroke="#e0e0e0" stroke-width="1" class="grid-line grid-line-y"/></g><g transform="translate(0,20)"><line x1="67" y1="174" x2="72" y2="174" stroke="#374151" stroke-width="1" class="tick"/></g><g transform="translate(0,20)"><text x="64" y="174" text-anchor="end" font-family="Inter, Liberation Sans, Arial, sans-serif" dominant-baseline="middle" font-size="12px" fill="#6b7280" class="tick-label tick-value">500,000</text></g><g transform="translate(0,20)"><line x1="72" y1="116" x2="770" y2="116" stroke="#e0e0e0" stroke-width="1" class="grid-line grid-line-y"/></g><g transform="translate(0,20)"><line x1="67" y1="116" x2="72" y2="116" stroke="#374151" stroke-width="1" class="tick"/></g><g transform="translate(0,20)"><text x="64" y="116" text-anchor="end" font-family="Inter, Liberation Sans, Arial, sans-serif" dominant-baseline="middle" font-size="12px" fill="#6b7280" class="tick-label tick-value">1,000,000</text></g><g transform="translate(0,20)"><line x1="72" y1="58" x2="770" y2="58" stroke="#e0e0e0" stroke-width="1" class="grid-line grid-line-y"/></g><g transform="translate(0,20)"><line x1="67" y1="58" x2="72" y2="58" stroke="#374151" stroke-width="1" class="tick"/></g><g transform="translate(0,20)"><text x="64" y="58" text-anchor="end" font-family="Inter, Liberation Sans, Arial, sans-serif" dominant-baseline="middle" font-size="12px" fill="#6b7280" class="tick-label tick-value">1,500,000</text></g><g transform="translate(0,20)"><line x1="72" y1="0" x2="770" y2="0" stroke="#e0e0e0" stroke-width="1" class="grid-line grid-line-y"/></g><g transform="translate(0,20)"><line x1="67" y1="0" x2="72" y2="0" stroke="#374151" stroke-width="1" class="tick"/></g><g transform="translate(0,20)"><text x="64" y="0" text-anchor="end" font-family="Inter, Liberation Sans, Arial, sans-serif" dominant-baseline="middle" font-size="12px" fill="#6b7280" class="tick-label tick-value">2,000,000</text></g></g><g class="bars" transform="translate(72,20)"><rect x="12.846625766871165" y="63.80000000000001" width="72.79754601226993" height="168.2" fill="#2E7D9A" style="transform-box: fill-box; transform-origin: 50% 100%;" class="bar bar-rect" data-label="Enterprise Resource Planning" data-value="1,450,000"/><rect x="98.49079754601227" y="83.52000000000001" width="72.79754601226993" height="148.48" fill="#2E7D9A" style="transform-box: fill-box; transform-origin: 50% 100%;" class="bar bar-rect" data-label="Customer Relationship Mgmt" data-value="1,280,000"/><rect x="184.13496932515338" y="118.32000000000001" width="72.79754601226993" height="113.67999999999999" fill="#2E7D9A" style="transform-box: fill-box; transform-origin: 50% 100%;" class="bar bar-rect" data-label="Supply Chain Management" data-value="980,000"/><rect x="269.77914110429447" y="132.24" width="72.79754601226993" height="99.75999999999999" fill="#2E7D9A" style="transform-box: fill-box; transform-origin: 50% 100%;" class="bar bar-rect" data-label="Human Capital Management" data-value="860,000"/><rect x="355.4233128834356" y="146.16" width="72.79754601226993" height="85.84" fill="#2E7D9A" style="transform-box: fill-box; transform-origin: 50% 100%;" class="bar bar-rect" data-label="Business Intelligence Suite" data-value="740,000"/><rect x="441.0674846625767" y="160.07999999999998" width="72.79754601226993" height="71.92000000000002" fill="#2E7D9A" style="transform-box: fill-box; transform-origin: 50% 100%;" class="bar bar-rect" data-label="Content Management System" data-value="620,000"/><rect x="526.7116564417178" y="172.84" width="72.79754601226993" height="59.16" fill="#2E7D9A" style="transform-box: fill-box; transform-origin: 50% 100%;" class="bar bar-rect" data-label="Project Portfolio Manager" data-value="510,000"/><rect x="612.3558282208589" y="182.12" width="72.79754601226993" height="49.879999999999995" fill="#2E7D9A" style="transform-box: fill-box; transform-origin: 50% 100%;" class="bar bar-rect" data-label="Identity &amp; Access Control" data-value="430,000"/></g></svg>