<svg xmlns="http://www.w3.org/2000/svg" viewBox="0 0 800 400" width="800" height="400" class="chartml-bar chartml-combo"><g class="axes"><g transform="translate(70,0)"><line x1="0" y1="332" x2="661" y2="332" stroke="#374151" stroke-width="1" class="axis-line"/></g><g transform="translate(70,0)"><line x1="88.67073170731709" y1="332" x2="88.67073170731709" y2="337" stroke="#374151" stroke-width="1" class="tick"/></g><g transform="translate(70,0)"><text x="88.67073170731709" y="350" text-anchor="middle" font-family="Inter, Liberation Sans, Arial, sans-serif" font-size="12px" fill="#6b7280" class="tick-label">Q1</text></g><g transform="translate(70,0)"><line x1="249.89024390243907" y1="332" x2="249.89024390243907" y2="337" stroke="#374151" stroke-width="1" class="tick"/></g><g transform="translate(70,0)"><text x="249.89024390243907" y="350" text-anchor="middle" font-family="Inter, Liberation Sans, Arial, sans-serif" font-size="12px" fill="#6b7280" class="tick-label">Q2</text></g><g transform="translate(70,0)"><line x1="411.10975609756105" y1="332" x2="411.10975609756105" y2="337" stroke="#374151" stroke-width="1" class="tick"/></g><g transform="translate(70,0)"><text x="411.10975609756105" y="350" text-anchor="middle" font-family="Inter, Liberation Sans, Arial, sans-serif" font-size="12px" fill="#6b7280" class="tick-label">Q3</text></g><g transform="translate(70,0)"><line x1="572.3292682926831" y1="332" x2="572.3292682926831" y2="337" stroke="#374151" stroke-width="1" class="tick"/></g><g transform="translate(70,0)"><text x="572.3292682926831" y="350" text-anchor="middle" font-family="Inter, Liberation Sans, Arial, sans-serif" font-size="12px" fill="#6b7280" class="tick-label">Q4</text></g><g transform="translate(0,20)"><line x1="70" y1="0" x2="70" y2="312" stroke="#374151" stroke-width="1" class="axis-line"/></g><g transform="translate(0,20)"><line x1="70" y1="312" x2="731" y2="312" stroke="#e0e0e0" stroke-width="1" class="grid-line grid-line-y"/></g><g transform="translate(0,20)"><line x1="65" y1="312" x2="70" y2="312" stroke="#374151" stroke-width="1" class="tick"/></g><g transform="translate(0,20)"><text x="62" y="312" text-anchor="end" font-family="Inter, Liberation Sans, Arial, sans-serif" dominant-baseline="middle" font-size="12px" fill="#6b7280" class="tick-label">$0K</text></g><g transform="translate(0,20)"><line x1="70" y1="249.6" x2="731" y2="249.6" stroke="#e0e0e0" stroke-width="1" class="grid-line grid-line-y"/></g><g transform="translate(0,20)"><line x1="65" y1="249.6" x2="70" y2="249.6" stroke="#374151" stroke-width="1" class="tick"/></g><g transform="translate(0,20)"><text x="62" y="249.6" text-anchor="end" font-family="Inter, Liberation Sans, Arial, sans-serif" dominant-baseline="middle" font-size="12px" fill="#6b7280" class="tick-label">$100K</text></g><g transform="translate(0,20)"><line x1="70" y1="187.2" x2="731" y2="187.2" stroke="#e0e0e0" stroke-width="1" class="grid-line grid-line-y"/></g><g transform="translate(0,20)"><line x1="65" y1="187.2" x2="70" y2="187.2" stroke="#374151" stroke-width="1" class="tick"/></g><g transform="translate(0,20)"><text x="62" y="187.2" text-anchor="end" font-family="Inter, Liberation Sans, Arial, sans-serif" dominant-baseline="middle" font-size="12px" fill="#6b7280" class="tick-label">$200K</text></g><g transform="translate(0,20)"><line x1="70" y1="124.80000000000001" x2="731" y2="124.80000000000001" stroke="#e0e0e0" stroke-width="1" class="grid-line grid-line-y"/></g><g transform="translate(0,20)"><line x1="65" y1="124.80000000000001" x2="70" y2="124.80000000000001" stroke="#374151" stroke-width="1" class="tick"/></g><g transform="translate(0,20)"><text x="62" y="124.80000000000001" text-anchor="end" font-family="Inter, Liberation Sans, Arial, sans-serif" dominant-baseline="middle" font-size="12px" fill="#6b7280" class="tick-label">$300K</text></g><g transform="translate(0,20)"><line x1="70" y1="62.39999999999998" x2="731" y2="62.39999999999998" stroke="#e0e0e0" stroke-width="1" class="grid-line grid-line-y"/></g><g transform="translate(0,20)"><line x1="65" y1="62.39999999999998" x2="70" y2="62.39999999999998" stroke="#374151" stroke-width="1" class="tick"/></g><g transform="translate(0,20)"><text x="62" y="62.39999999999998" text-anchor="end" font-family="Inter, Liberation Sans, Arial, sans-serif" dominant-baseline="middle" font-size="12px" fill="#6b7280" class="tick-label">$400K</text></g><g transform="translate(0,20)"><line x1="70" y1="0" x2="731" y2="0" stroke="#e0e0e0" stroke-width="1" class="grid-line grid-line-y"/></g><g transform="translate(0,20)"><line x1="65" y1="0" x2="70" y2="0" stroke="#374151" stroke-width="1" class="tick"/></g><g transform="translate(0,20)"><text x="62" y="0" text-anchor="end" font-family="Inter, Liberation Sans, Arial, sans-serif" dominant-baseline="middle" font-size="12px" fill="#6b7280" class="tick-label">$500K</text></g><g transform="translate(0,20)"><text x="10" y="156" text-anchor="middle" font-family="Inter, Liberation Sans, Arial, sans-serif" dominant-baseline="middle" transform="rotate(-90,10,156)" font-size="12px" fill="#6b7280" class="axis-label">Revenue ($)</text></g><g transform="translate(0,20)"><line x1="731" y1="0" x2="731" y2="312" stroke="#374151" stroke-width="1" class="axis-line"/></g><g transform="translate(0,20)"><line x1="731" y1="312" x2="736" y2="312" stroke="#374151" stroke-width="1" class="tick"/></g><g transform="translate(0,20)"><text x="739" y="312" text-anchor="start" font-family="Inter, Liberation Sans, Arial, sans-serif" dominant-baseline="middle" font-size="12px" fill="#6b7280" class="tick-label">50.0</text></g><g transform="translate(0,20)"><line x1="731" y1="260" x2="736" y2="260" stroke="#374151" stroke-width="1" class="tick"/></g><g transform="translate(0,20)"><text x="739" y="260" text-anchor="start" font-family="Inter, Liberation Sans, Arial, sans-serif" dominant-baseline="middle" font-size="12px" fill="#6b7280" class="tick-label">55.0</text></g><g transform="translate(0,20)"><line x1="731" y1="208" x2="736" y2="208" stroke="#374151" stroke-width="1" class="tick"/></g><g transform="translate(0,20)"><text x="739" y="208" text-anchor="start" font-family="Inter, Liberation Sans, Arial, sans-serif" dominant-baseline="middle" font-size="12px" fill="#6b7280" class="tick-label">60.0</text></g><g transform="translate(0,20)"><line x1="731" y1="156" x2="736" y2="156" stroke="#374151" stroke-width="1" class="tick"/></g><g transform="translate(0,20)"><text x="739" y="156" text-anchor="start" font-family="Inter, Liberation Sans, Arial, sans-serif" dominant-baseline="middle" font-size="12px" fill="#6b7280" class="tick-label">65.0</text></g><g transform="translate(0,20)"><line x1="731" y1="104" x2="736" y2="104" stroke="#374151" stroke-width="1" class="tick"/></g><g transform="translate(0,20)"><text x="739" y="104" text-anchor="start" font-family="Inter, Liberation Sans, Arial, sans-serif" dominant-baseline="middle" font-size="12px" fill="#6b7280" class="tick-label">70.0</text></g><g transform="translate(0,20)"><line x1="731" y1="52" x2="736" y2="52" stroke="#374151" stroke-width="1" class="tick"/></g><g transform="translate(0,20)"><text x="739" y="52" text-anchor="start" font-family="Inter, Liberation Sans, Arial, sans-serif" dominant-baseline="middle" font-size="12px" fill="#6b7280" class="tick-label">75.0</text></g><g transform="translate(0,20)"><line x1="731" y1="0" x2="736" y2="0" stroke="#374151" stroke-width="1" class="tick"/></g><g transform="translate(0,20)"><text x="739" y="0" text-anchor="start" font-family="Inter, Liberation Sans, Arial, sans-serif" dominant-baseline="middle" font-size="12px" fill="#6b7280" class="tick-label">80.0</text></g><text x="788" y="176" text-anchor="middle" font-family="Inter, Liberation Sans, Arial, sans-serif" transform="rotate(90,788,176)" font-size="12px" fill="#6b7280" class="axis-label">Gross Margin (%)</text></g><g class="marks"><rect x="101.47619047619048" y="97.376" width="125.90476190476191" height="234.624" fill="#2E7D9A" style="transform-origin: 164.42857142857144px 332px;" class="bar" data-label="Q1" data-value="$376,000" data-series="Revenue"/><rect x="258.8571428571429" y="74.91200000000003" width="125.90476190476191" height="257.08799999999997" fill="#2E7D9A" style="transform-origin: 321.80952380952385px 332px;" class="bar" data-label="Q2" data-value="$412,000" data-series="Revenue"/><rect x="416.23809523809524" y="89.26399999999998" width="125.90476190476191" height="242.73600000000002" fill="#2E7D9A" style="transform-origin: 479.1904761904762px 332px;" class="bar" data-label="Q3" data-value="$389,000" data-series="Revenue"/><rect x="573.6190476190476" y="22.49599999999998" width="125.90476190476191" height="309.504" fill="#2E7D9A" style="transform-origin: 636.5714285714286px 332px;" class="bar" data-label="Q4" data-value="$496,000" data-series="Revenue"/><path d="M164.428571,203.04C216.888889,197.146667 269.349206,185.36 321.809524,185.36C374.269841,185.36 426.730159,230.08 479.190476,230.08C531.650794,230.08 584.111111,182.24 636.571429,158.32" fill="none" stroke="#D4A445" stroke-width="2" class="chartml-line-path" data-label="Gross Margin %" data-series="Gross Margin %"/><circle cx="164.42857142857144" cy="203.04000000000002" r="5" fill="#D4A445" stroke="#ffffff" class="chartml-line-dot" data-label="Q1" data-value="62.4" data-series="Gross Margin %"/><circle cx="321.80952380952385" cy="185.36000000000007" r="5" fill="#D4A445" stroke="#ffffff" class="chartml-line-dot" data-label="Q2" data-value="64.1" data-series="Gross Margin %"/><circle cx="479.1904761904762" cy="230.08000000000004" r="5" fill="#D4A445" stroke="#ffffff" class="chartml-line-dot" data-label="Q3" data-value="59.8" data-series="Gross Margin %"/><circle cx="636.5714285714286" cy="158.31999999999996" r="5" fill="#D4A445" stroke="#ffffff" class="chartml-line-dot" data-label="Q4" data-value="66.7" data-series="Gross Margin %"/></g><g class="legend"><rect x="298" y="372" width="12" height="12" fill="#2E7D9A" style="transform-origin: 304px 384px;" class="legend-symbol"/><text x="316" y="382" text-anchor="start" font-family="Inter, Liberation Sans, Arial, sans-serif" font-size="11px" fill="#6b7280" class="legend-label">Revenue</text><line x1="381" y1="378" x2="393" y2="378" stroke="#D4A445" stroke-width="2.5" class="legend-symbol legend-line"/><text x="399" y="382" text-anchor="start" font-family="Inter, Liberation Sans, Arial, sans-serif" font-size="11px" fill="#6b7280" class="legend-label">Gross Margin %</text></g></svg>