<svg xmlns="http://www.w3.org/2000/svg" viewBox="0 0 800 400" width="800" height="400" class="chartml-area"><g class="axes"><g transform="translate(47,0)"><line x1="0" y1="360" x2="723" y2="360" stroke="#374151" stroke-width="1" class="axis-line"/></g><g transform="translate(47,0)"><line x1="65.18852459016394" y1="360" x2="65.18852459016394" y2="365" stroke="#374151" stroke-width="1" class="tick"/></g><g transform="translate(47,0)"><text x="65.18852459016394" y="378" text-anchor="middle" font-family="Inter, Liberation Sans, Arial, sans-serif" font-size="12px" fill="#6b7280" class="tick-label axis-label">Jan</text></g><g transform="translate(47,0)"><line x1="183.71311475409837" y1="360" x2="183.71311475409837" y2="365" stroke="#374151" stroke-width="1" class="tick"/></g><g transform="translate(47,0)"><text x="183.71311475409837" y="378" text-anchor="middle" font-family="Inter, Liberation Sans, Arial, sans-serif" font-size="12px" fill="#6b7280" class="tick-label axis-label">Feb</text></g><g transform="translate(47,0)"><line x1="302.23770491803276" y1="360" x2="302.23770491803276" y2="365" stroke="#374151" stroke-width="1" class="tick"/></g><g transform="translate(47,0)"><text x="302.23770491803276" y="378" text-anchor="middle" font-family="Inter, Liberation Sans, Arial, sans-serif" font-size="12px" fill="#6b7280" class="tick-label axis-label">Mar</text></g><g transform="translate(47,0)"><line x1="420.7622950819672" y1="360" x2="420.7622950819672" y2="365" stroke="#374151" stroke-width="1" class="tick"/></g><g transform="translate(47,0)"><text x="420.7622950819672" y="378" text-anchor="middle" font-family="Inter, Liberation Sans, Arial, sans-serif" font-size="12px" fill="#6b7280" class="tick-label axis-label">Apr</text></g><g transform="translate(47,0)"><line x1="539.2868852459015" y1="360" x2="539.2868852459015" y2="365" stroke="#374151" stroke-width="1" class="tick"/></g><g transform="translate(47,0)"><text x="539.2868852459015" y="378" text-anchor="middle" font-family="Inter, Liberation Sans, Arial, sans-serif" font-size="12px" fill="#6b7280" class="tick-label axis-label">May</text></g><g transform="translate(47,0)"><line x1="657.811475409836" y1="360" x2="657.811475409836" y2="365" stroke="#374151" stroke-width="1" class="tick"/></g><g transform="translate(47,0)"><text x="657.811475409836" y="378" text-anchor="middle" font-family="Inter, Liberation Sans, Arial, sans-serif" font-size="12px" fill="#6b7280" class="tick-label axis-label">Jun</text></g><g transform="translate(0,20)"><line x1="47" y1="0" x2="47" y2="340" stroke="#374151" stroke-width="1" class="axis-line"/></g><g transform="translate(0,20)"><line x1="47" y1="340" x2="770" y2="340" stroke="#e0e0e0" stroke-width="1" class="grid-line grid-line-y"/></g><g transform="translate(0,20)"><line x1="42" y1="340" x2="47" y2="340" stroke="#374151" stroke-width="1" class="tick"/></g><g transform="translate(0,20)"><text x="39" y="340" text-anchor="end" font-family="Inter, Liberation Sans, Arial, sans-serif" dominant-baseline="middle" font-size="12px" fill="#6b7280" class="tick-label tick-value">0</text></g><g transform="translate(0,20)"><line x1="47" y1="272" x2="770" y2="272" stroke="#e0e0e0" stroke-width="1" class="grid-line grid-line-y"/></g><g transform="translate(0,20)"><line x1="42" y1="272" x2="47" y2="272" stroke="#374151" stroke-width="1" class="tick"/></g><g transform="translate(0,20)"><text x="39" y="272" text-anchor="end" font-family="Inter, Liberation Sans, Arial, sans-serif" dominant-baseline="middle" font-size="12px" fill="#6b7280" class="tick-label tick-value">500</text></g><g transform="translate(0,20)"><line x1="47" y1="204" x2="770" y2="204" stroke="#e0e0e0" stroke-width="1" class="grid-line grid-line-y"/></g><g transform="translate(0,20)"><line x1="42" y1="204" x2="47" y2="204" stroke="#374151" stroke-width="1" class="tick"/></g><g transform="translate(0,20)"><text x="39" y="204" text-anchor="end" font-family="Inter, Liberation Sans, Arial, sans-serif" dominant-baseline="middle" font-size="12px" fill="#6b7280" class="tick-label tick-value">1,000</text></g><g transform="translate(0,20)"><line x1="47" y1="136" x2="770" y2="136" stroke="#e0e0e0" stroke-width="1" class="grid-line grid-line-y"/></g><g transform="translate(0,20)"><line x1="42" y1="136" x2="47" y2="136" stroke="#374151" stroke-width="1" class="tick"/></g><g transform="translate(0,20)"><text x="39" y="136" text-anchor="end" font-family="Inter, Liberation Sans, Arial, sans-serif" dominant-baseline="middle" font-size="12px" fill="#6b7280" class="tick-label tick-value">1,500</text></g><g transform="translate(0,20)"><line x1="47" y1="68" x2="770" y2="68" stroke="#e0e0e0" stroke-width="1" class="grid-line grid-line-y"/></g><g transform="translate(0,20)"><line x1="42" y1="68" x2="47" y2="68" stroke="#374151" stroke-width="1" class="tick"/></g><g transform="translate(0,20)"><text x="39" y="68" text-anchor="end" font-family="Inter, Liberation Sans, Arial, sans-serif" dominant-baseline="middle" font-size="12px" fill="#6b7280" class="tick-label tick-value">2,000</text></g><g transform="translate(0,20)"><line x1="47" y1="0" x2="770" y2="0" stroke="#e0e0e0" stroke-width="1" class="grid-line grid-line-y"/></g><g transform="translate(0,20)"><line x1="42" y1="0" x2="47" y2="0" stroke="#374151" stroke-width="1" class="tick"/></g><g transform="translate(0,20)"><text x="39" y="0" text-anchor="end" font-family="Inter, Liberation Sans, Arial, sans-serif" dominant-baseline="middle" font-size="12px" fill="#6b7280" class="tick-label tick-value">2,500</text></g></g><g class="areas" transform="translate(47,20)"><path d="M65.188525,171.36C104.696721,165.013333 144.204918,159.573333 183.713115,152.32C223.221311,145.066667 262.729508,135.546667 302.237705,127.84C341.745902,120.133333 381.254098,113.56 420.762295,106.08C460.270492,98.6 499.778689,92.706667 539.286885,82.96C578.795082,73.213333 618.303279,59.386667 657.811475,47.6L657.811475,340C618.303279,340 578.795082,340 539.286885,340C499.778689,340 460.270492,340 420.762295,340C381.254098,340 341.745902,340 302.237705,340C262.729508,340 223.221311,340 183.713115,340C144.204918,340 104.696721,340 65.188525,340Z" fill="#2E7D9A" stroke="none" opacity="0.6" class="chartml-area-path"/><path d="M65.188525,171.36C104.696721,165.013333 144.204918,159.573333 183.713115,152.32C223.221311,145.066667 262.729508,135.546667 302.237705,127.84C341.745902,120.133333 381.254098,113.56 420.762295,106.08C460.270492,98.6 499.778689,92.706667 539.286885,82.96C578.795082,73.213333 618.303279,59.386667 657.811475,47.6" fill="none" stroke="#2E7D9A" stroke-width="2" class="chartml-line-path series-line"/></g></svg>