<svg xmlns="http://www.w3.org/2000/svg" viewBox="0 0 800 400" width="800" height="400" class="chartml-line"><g class="axes"><g transform="translate(36,0)"><line x1="0" y1="334" x2="734" y2="334" stroke="#ccc" stroke-width="1" class="axis-line"/></g><g transform="translate(36,0)"><line x1="22.30386740331492" y1="334" x2="22.30386740331492" y2="339" stroke="#999" stroke-width="1" class="tick"/></g><g transform="translate(36,0)"><text x="22.30386740331492" y="344" text-anchor="end" font-family="Inter, Liberation Sans, Arial, sans-serif" transform="rotate(-45,22.30386740331492,344)" font-size="11px" fill="#666" class="tick-label">Nov &apos;24</text></g><g transform="translate(36,0)"><line x1="62.85635359116023" y1="334" x2="62.85635359116023" y2="339" stroke="#999" stroke-width="1" class="tick"/></g><g transform="translate(36,0)"><text x="62.85635359116023" y="344" text-anchor="end" font-family="Inter, Liberation Sans, Arial, sans-serif" transform="rotate(-45,62.85635359116023,344)" font-size="11px" fill="#666" class="tick-label">Nov &apos;24</text></g><g transform="translate(36,0)"><line x1="103.40883977900555" y1="334" x2="103.40883977900555" y2="339" stroke="#999" stroke-width="1" class="tick"/></g><g transform="translate(36,0)"><text x="103.40883977900555" y="344" text-anchor="end" font-family="Inter, Liberation Sans, Arial, sans-serif" transform="rotate(-45,103.40883977900555,344)" font-size="11px" fill="#666" class="tick-label">Nov &apos;24</text></g><g transform="translate(36,0)"><line x1="143.96132596685084" y1="334" x2="143.96132596685084" y2="339" stroke="#999" stroke-width="1" class="tick"/></g><g transform="translate(36,0)"><text x="143.96132596685084" y="344" text-anchor="end" font-family="Inter, Liberation Sans, Arial, sans-serif" transform="rotate(-45,143.96132596685084,344)" font-size="11px" fill="#666" class="tick-label">Nov &apos;24</text></g><g transform="translate(36,0)"><line x1="184.51381215469615" y1="334" x2="184.51381215469615" y2="339" stroke="#999" stroke-width="1" class="tick"/></g><g transform="translate(36,0)"><text x="184.51381215469615" y="344" text-anchor="end" font-family="Inter, Liberation Sans, Arial, sans-serif" transform="rotate(-45,184.51381215469615,344)" font-size="11px" fill="#666" class="tick-label">Nov &apos;24</text></g><g transform="translate(36,0)"><line x1="225.06629834254147" y1="334" x2="225.06629834254147" y2="339" stroke="#999" stroke-width="1" class="tick"/></g><g transform="translate(36,0)"><text x="225.06629834254147" y="344" text-anchor="end" font-family="Inter, Liberation Sans, Arial, sans-serif" transform="rotate(-45,225.06629834254147,344)" font-size="11px" fill="#666" class="tick-label">Dec &apos;24</text></g><g transform="translate(36,0)"><line x1="265.6187845303868" y1="334" x2="265.6187845303868" y2="339" stroke="#999" stroke-width="1" class="tick"/></g><g transform="translate(36,0)"><text x="265.6187845303868" y="344" text-anchor="end" font-family="Inter, Liberation Sans, Arial, sans-serif" transform="rotate(-45,265.6187845303868,344)" font-size="11px" fill="#666" class="tick-label">Dec &apos;24</text></g><g transform="translate(36,0)"><line x1="306.17127071823205" y1="334" x2="306.17127071823205" y2="339" stroke="#999" stroke-width="1" class="tick"/></g><g transform="translate(36,0)"><text x="306.17127071823205" y="344" text-anchor="end" font-family="Inter, Liberation Sans, Arial, sans-serif" transform="rotate(-45,306.17127071823205,344)" font-size="11px" fill="#666" class="tick-label">Dec &apos;24</text></g><g transform="translate(36,0)"><line x1="346.72375690607737" y1="334" x2="346.72375690607737" y2="339" stroke="#999" stroke-width="1" class="tick"/></g><g transform="translate(36,0)"><text x="346.72375690607737" y="344" text-anchor="end" font-family="Inter, Liberation Sans, Arial, sans-serif" transform="rotate(-45,346.72375690607737,344)" font-size="11px" fill="#666" class="tick-label">Dec &apos;24</text></g><g transform="translate(36,0)"><line x1="387.2762430939227" y1="334" x2="387.2762430939227" y2="339" stroke="#999" stroke-width="1" class="tick"/></g><g transform="translate(36,0)"><text x="387.2762430939227" y="344" text-anchor="end" font-family="Inter, Liberation Sans, Arial, sans-serif" transform="rotate(-45,387.2762430939227,344)" font-size="11px" fill="#666" class="tick-label">Jan &apos;25</text></g><g transform="translate(36,0)"><line x1="427.828729281768" y1="334" x2="427.828729281768" y2="339" stroke="#999" stroke-width="1" class="tick"/></g><g transform="translate(36,0)"><text x="427.828729281768" y="344" text-anchor="end" font-family="Inter, Liberation Sans, Arial, sans-serif" transform="rotate(-45,427.828729281768,344)" font-size="11px" fill="#666" class="tick-label">Jan &apos;25</text></g><g transform="translate(36,0)"><line x1="468.3812154696133" y1="334" x2="468.3812154696133" y2="339" stroke="#999" stroke-width="1" class="tick"/></g><g transform="translate(36,0)"><text x="468.3812154696133" y="344" text-anchor="end" font-family="Inter, Liberation Sans, Arial, sans-serif" transform="rotate(-45,468.3812154696133,344)" font-size="11px" fill="#666" class="tick-label">Jan &apos;25</text></g><g transform="translate(36,0)"><line x1="508.9337016574586" y1="334" x2="508.9337016574586" y2="339" stroke="#999" stroke-width="1" class="tick"/></g><g transform="translate(36,0)"><text x="508.9337016574586" y="344" text-anchor="end" font-family="Inter, Liberation Sans, Arial, sans-serif" transform="rotate(-45,508.9337016574586,344)" font-size="11px" fill="#666" class="tick-label">Jan &apos;25</text></g><g transform="translate(36,0)"><line x1="549.486187845304" y1="334" x2="549.486187845304" y2="339" stroke="#999" stroke-width="1" class="tick"/></g><g transform="translate(36,0)"><text x="549.486187845304" y="344" text-anchor="end" font-family="Inter, Liberation Sans, Arial, sans-serif" transform="rotate(-45,549.486187845304,344)" font-size="11px" fill="#666" class="tick-label">Jan &apos;25</text></g><g transform="translate(36,0)"><line x1="590.0386740331493" y1="334" x2="590.0386740331493" y2="339" stroke="#999" stroke-width="1" class="tick"/></g><g transform="translate(36,0)"><text x="590.0386740331493" y="344" text-anchor="end" font-family="Inter, Liberation Sans, Arial, sans-serif" transform="rotate(-45,590.0386740331493,344)" font-size="11px" fill="#666" class="tick-label">Feb &apos;25</text></g><g transform="translate(36,0)"><line x1="630.5911602209947" y1="334" x2="630.5911602209947" y2="339" stroke="#999" stroke-width="1" class="tick"/></g><g transform="translate(36,0)"><text x="630.5911602209947" y="344" text-anchor="end" font-family="Inter, Liberation Sans, Arial, sans-serif" transform="rotate(-45,630.5911602209947,344)" font-size="11px" fill="#666" class="tick-label">Feb &apos;25</text></g><g transform="translate(36,0)"><line x1="671.1436464088399" y1="334" x2="671.1436464088399" y2="339" stroke="#999" stroke-width="1" class="tick"/></g><g transform="translate(36,0)"><text x="671.1436464088399" y="344" text-anchor="end" font-family="Inter, Liberation Sans, Arial, sans-serif" transform="rotate(-45,671.1436464088399,344)" font-size="11px" fill="#666" class="tick-label">Feb &apos;25</text></g><g transform="translate(36,0)"><line x1="711.6961325966852" y1="334" x2="711.6961325966852" y2="339" stroke="#999" stroke-width="1" class="tick"/></g><g transform="translate(36,0)"><text x="711.6961325966852" y="344" text-anchor="end" font-family="Inter, Liberation Sans, Arial, sans-serif" transform="rotate(-45,711.6961325966852,344)" font-size="11px" fill="#666" class="tick-label">Feb &apos;25</text></g><g transform="translate(0,20)"><line x1="36" y1="0" x2="36" y2="314" stroke="#ccc" stroke-width="1" class="axis-line"/></g><g transform="translate(0,20)"><line x1="36" y1="314" x2="770" y2="314" stroke="#e0e0e0" stroke-width="1" class="grid-line grid-line-y"/></g><g transform="translate(0,20)"><line x1="31" y1="314" x2="36" y2="314" stroke="#999" stroke-width="1" class="tick"/></g><g transform="translate(0,20)"><text x="28" y="314" text-anchor="end" font-family="Inter, Liberation Sans, Arial, sans-serif" dominant-baseline="middle" font-size="11px" fill="#666" class="tick-label">0</text></g><g transform="translate(0,20)"><line x1="36" y1="269.14285714285717" x2="770" y2="269.14285714285717" stroke="#e0e0e0" stroke-width="1" class="grid-line grid-line-y"/></g><g transform="translate(0,20)"><line x1="31" y1="269.14285714285717" x2="36" y2="269.14285714285717" stroke="#999" stroke-width="1" class="tick"/></g><g transform="translate(0,20)"><text x="28" y="269.14285714285717" text-anchor="end" font-family="Inter, Liberation Sans, Arial, sans-serif" dominant-baseline="middle" font-size="11px" fill="#666" class="tick-label">100</text></g><g transform="translate(0,20)"><line x1="36" y1="224.28571428571428" x2="770" y2="224.28571428571428" stroke="#e0e0e0" stroke-width="1" class="grid-line grid-line-y"/></g><g transform="translate(0,20)"><line x1="31" y1="224.28571428571428" x2="36" y2="224.28571428571428" stroke="#999" stroke-width="1" class="tick"/></g><g transform="translate(0,20)"><text x="28" y="224.28571428571428" text-anchor="end" font-family="Inter, Liberation Sans, Arial, sans-serif" dominant-baseline="middle" font-size="11px" fill="#666" class="tick-label">200</text></g><g transform="translate(0,20)"><line x1="36" y1="179.42857142857144" x2="770" y2="179.42857142857144" stroke="#e0e0e0" stroke-width="1" class="grid-line grid-line-y"/></g><g transform="translate(0,20)"><line x1="31" y1="179.42857142857144" x2="36" y2="179.42857142857144" stroke="#999" stroke-width="1" class="tick"/></g><g transform="translate(0,20)"><text x="28" y="179.42857142857144" text-anchor="end" font-family="Inter, Liberation Sans, Arial, sans-serif" dominant-baseline="middle" font-size="11px" fill="#666" class="tick-label">300</text></g><g transform="translate(0,20)"><line x1="36" y1="134.57142857142858" x2="770" y2="134.57142857142858" stroke="#e0e0e0" stroke-width="1" class="grid-line grid-line-y"/></g><g transform="translate(0,20)"><line x1="31" y1="134.57142857142858" x2="36" y2="134.57142857142858" stroke="#999" stroke-width="1" class="tick"/></g><g transform="translate(0,20)"><text x="28" y="134.57142857142858" text-anchor="end" font-family="Inter, Liberation Sans, Arial, sans-serif" dominant-baseline="middle" font-size="11px" fill="#666" class="tick-label">400</text></g><g transform="translate(0,20)"><line x1="36" y1="89.71428571428572" x2="770" y2="89.71428571428572" stroke="#e0e0e0" stroke-width="1" class="grid-line grid-line-y"/></g><g transform="translate(0,20)"><line x1="31" y1="89.71428571428572" x2="36" y2="89.71428571428572" stroke="#999" stroke-width="1" class="tick"/></g><g transform="translate(0,20)"><text x="28" y="89.71428571428572" text-anchor="end" font-family="Inter, Liberation Sans, Arial, sans-serif" dominant-baseline="middle" font-size="11px" fill="#666" class="tick-label">500</text></g><g transform="translate(0,20)"><line x1="36" y1="44.85714285714289" x2="770" y2="44.85714285714289" stroke="#e0e0e0" stroke-width="1" class="grid-line grid-line-y"/></g><g transform="translate(0,20)"><line x1="31" y1="44.85714285714289" x2="36" y2="44.85714285714289" stroke="#999" stroke-width="1" class="tick"/></g><g transform="translate(0,20)"><text x="28" y="44.85714285714289" text-anchor="end" font-family="Inter, Liberation Sans, Arial, sans-serif" dominant-baseline="middle" font-size="11px" fill="#666" class="tick-label">600</text></g><g transform="translate(0,20)"><line x1="36" y1="0" x2="770" y2="0" stroke="#e0e0e0" stroke-width="1" class="grid-line grid-line-y"/></g><g transform="translate(0,20)"><line x1="31" y1="0" x2="36" y2="0" stroke="#999" stroke-width="1" class="tick"/></g><g transform="translate(0,20)"><text x="28" y="0" text-anchor="end" font-family="Inter, Liberation Sans, Arial, sans-serif" dominant-baseline="middle" font-size="11px" fill="#666" class="tick-label">700</text></g></g><g class="lines" transform="translate(36,20)"><path d="M22.303867,161.485714C35.821363,157.747619 49.338858,154.009524 62.856354,150.271429C76.373849,146.533333 89.891344,143.169048 103.40884,139.057143C116.926335,134.945238 130.443831,134.571429 143.961326,125.6C157.478821,116.628571 170.996317,85.228571 184.513812,85.228571C198.031308,85.228571 211.548803,98.685714 225.066298,98.685714C238.583794,98.685714 252.101289,95.695238 265.618785,80.742857C279.13628,65.790476 292.653775,8.971429 306.171271,8.971429C319.688766,8.971429 333.206262,111.395238 346.723757,139.057143C360.241252,166.719048 373.758748,174.942857 387.276243,174.942857C400.793738,174.942857 414.311234,163.728571 427.828729,159.242857C441.346225,154.757143 454.86372,151.019048 468.381215,148.028571C481.898711,145.038095 495.416206,143.542857 508.933702,141.3C522.451197,139.057143 535.968692,134.571429 549.486188,134.571429C563.003683,134.571429 576.521179,145.785714 590.038674,145.785714C603.556169,145.785714 617.073665,112.142857 630.59116,112.142857C644.108656,112.142857 657.626151,136.814286 671.143646,136.814286C684.661142,136.814286 698.178637,132.328571 711.696133,130.085714" fill="none" stroke="#2E7D9A" stroke-width="2" class="line"/><circle cx="22.30386740331492" cy="161.4857142857143" r="5" fill="#2E7D9A" stroke="#fff" class="chartml-line-dot" data-label="2024-11-01" data-value="340"/><circle cx="62.85635359116023" cy="150.27142857142857" r="5" fill="#2E7D9A" stroke="#fff" class="chartml-line-dot" data-label="2024-11-08" data-value="365"/><circle cx="103.40883977900555" cy="139.05714285714285" r="5" fill="#2E7D9A" stroke="#fff" class="chartml-line-dot" data-label="2024-11-15" data-value="390"/><circle cx="143.96132596685084" cy="125.6" r="5" fill="#2E7D9A" stroke="#fff" class="chartml-line-dot" data-label="2024-11-22" data-value="420"/><circle cx="184.51381215469615" cy="85.22857142857143" r="5" fill="#2E7D9A" stroke="#fff" class="chartml-line-dot" data-label="2024-11-29" data-value="510"/><circle cx="225.06629834254147" cy="98.68571428571428" r="5" fill="#2E7D9A" stroke="#fff" class="chartml-line-dot" data-label="2024-12-06" data-value="480"/><circle cx="265.6187845303868" cy="80.74285714285713" r="5" fill="#2E7D9A" stroke="#fff" class="chartml-line-dot" data-label="2024-12-13" data-value="520"/><circle cx="306.17127071823205" cy="8.97142857142859" r="5" fill="#2E7D9A" stroke="#fff" class="chartml-line-dot" data-label="2024-12-20" data-value="680"/><circle cx="346.72375690607737" cy="139.05714285714285" r="5" fill="#2E7D9A" stroke="#fff" class="chartml-line-dot" data-label="2024-12-27" data-value="390"/><circle cx="387.2762430939227" cy="174.94285714285715" r="5" fill="#2E7D9A" stroke="#fff" class="chartml-line-dot" data-label="2025-01-03" data-value="310"/><circle cx="427.828729281768" cy="159.24285714285713" r="5" fill="#2E7D9A" stroke="#fff" class="chartml-line-dot" data-label="2025-01-10" data-value="345"/><circle cx="468.3812154696133" cy="148.02857142857144" r="5" fill="#2E7D9A" stroke="#fff" class="chartml-line-dot" data-label="2025-01-17" data-value="370"/><circle cx="508.9337016574586" cy="141.29999999999998" r="5" fill="#2E7D9A" stroke="#fff" class="chartml-line-dot" data-label="2025-01-24" data-value="385"/><circle cx="549.486187845304" cy="134.57142857142858" r="5" fill="#2E7D9A" stroke="#fff" class="chartml-line-dot" data-label="2025-01-31" data-value="400"/><circle cx="590.0386740331493" cy="145.78571428571428" r="5" fill="#2E7D9A" stroke="#fff" class="chartml-line-dot" data-label="2025-02-07" data-value="375"/><circle cx="630.5911602209947" cy="112.14285714285714" r="5" fill="#2E7D9A" stroke="#fff" class="chartml-line-dot" data-label="2025-02-14" data-value="450"/><circle cx="671.1436464088399" cy="136.81428571428572" r="5" fill="#2E7D9A" stroke="#fff" class="chartml-line-dot" data-label="2025-02-21" data-value="395"/><circle cx="711.6961325966852" cy="130.0857142857143" r="5" fill="#2E7D9A" stroke="#fff" class="chartml-line-dot" data-label="2025-02-28" data-value="410"/></g></svg>