<svg xmlns="http://www.w3.org/2000/svg" viewBox="0 0 800 400" width="800" height="400" class="chartml-line"><g class="axes"><g transform="translate(96,0)"><line x1="0" y1="332" x2="628" y2="332" stroke="#ccc" stroke-width="1" class="axis-line"/></g><g transform="translate(96,0)"><line x1="42.64197530864198" y1="332" x2="42.64197530864198" y2="337" stroke="#999" stroke-width="1" class="tick"/></g><g transform="translate(96,0)"><text x="42.64197530864198" y="350" text-anchor="middle" font-family="Inter, Liberation Sans, Arial, sans-serif" font-size="11px" fill="#666" class="tick-label">Jan</text></g><g transform="translate(96,0)"><line x1="120.17283950617286" y1="332" x2="120.17283950617286" y2="337" stroke="#999" stroke-width="1" class="tick"/></g><g transform="translate(96,0)"><text x="120.17283950617286" y="350" text-anchor="middle" font-family="Inter, Liberation Sans, Arial, sans-serif" font-size="11px" fill="#666" class="tick-label">Feb</text></g><g transform="translate(96,0)"><line x1="197.70370370370372" y1="332" x2="197.70370370370372" y2="337" stroke="#999" stroke-width="1" class="tick"/></g><g transform="translate(96,0)"><text x="197.70370370370372" y="350" text-anchor="middle" font-family="Inter, Liberation Sans, Arial, sans-serif" font-size="11px" fill="#666" class="tick-label">Mar</text></g><g transform="translate(96,0)"><line x1="275.2345679012346" y1="332" x2="275.2345679012346" y2="337" stroke="#999" stroke-width="1" class="tick"/></g><g transform="translate(96,0)"><text x="275.2345679012346" y="350" text-anchor="middle" font-family="Inter, Liberation Sans, Arial, sans-serif" font-size="11px" fill="#666" class="tick-label">Apr</text></g><g transform="translate(96,0)"><line x1="352.7654320987655" y1="332" x2="352.7654320987655" y2="337" stroke="#999" stroke-width="1" class="tick"/></g><g transform="translate(96,0)"><text x="352.7654320987655" y="350" text-anchor="middle" font-family="Inter, Liberation Sans, Arial, sans-serif" font-size="11px" fill="#666" class="tick-label">May</text></g><g transform="translate(96,0)"><line x1="430.29629629629636" y1="332" x2="430.29629629629636" y2="337" stroke="#999" stroke-width="1" class="tick"/></g><g transform="translate(96,0)"><text x="430.29629629629636" y="350" text-anchor="middle" font-family="Inter, Liberation Sans, Arial, sans-serif" font-size="11px" fill="#666" class="tick-label">Jun</text></g><g transform="translate(96,0)"><line x1="507.8271604938272" y1="332" x2="507.8271604938272" y2="337" stroke="#999" stroke-width="1" class="tick"/></g><g transform="translate(96,0)"><text x="507.8271604938272" y="350" text-anchor="middle" font-family="Inter, Liberation Sans, Arial, sans-serif" font-size="11px" fill="#666" class="tick-label">Jul</text></g><g transform="translate(96,0)"><line x1="585.3580246913582" y1="332" x2="585.3580246913582" y2="337" stroke="#999" stroke-width="1" class="tick"/></g><g transform="translate(96,0)"><text x="585.3580246913582" y="350" text-anchor="middle" font-family="Inter, Liberation Sans, Arial, sans-serif" font-size="11px" fill="#666" class="tick-label">Aug</text></g><g transform="translate(0,20)"><line x1="96" y1="0" x2="96" y2="312" stroke="#ccc" stroke-width="1" class="axis-line"/></g><g transform="translate(0,20)"><line x1="96" y1="312" x2="724" y2="312" stroke="#e0e0e0" stroke-width="1" class="grid-line grid-line-y"/></g><g transform="translate(0,20)"><line x1="91" y1="312" x2="96" y2="312" stroke="#999" stroke-width="1" class="tick"/></g><g transform="translate(0,20)"><text x="88" y="312" text-anchor="end" font-family="Inter, Liberation Sans, Arial, sans-serif" dominant-baseline="middle" font-size="11px" fill="#666" class="tick-label">$0K</text></g><g transform="translate(0,20)"><line x1="96" y1="234" x2="724" y2="234" stroke="#e0e0e0" stroke-width="1" class="grid-line grid-line-y"/></g><g transform="translate(0,20)"><line x1="91" y1="234" x2="96" y2="234" stroke="#999" stroke-width="1" class="tick"/></g><g transform="translate(0,20)"><text x="88" y="234" text-anchor="end" font-family="Inter, Liberation Sans, Arial, sans-serif" dominant-baseline="middle" font-size="11px" fill="#666" class="tick-label">$50K</text></g><g transform="translate(0,20)"><line x1="96" y1="156" x2="724" y2="156" stroke="#e0e0e0" stroke-width="1" class="grid-line grid-line-y"/></g><g transform="translate(0,20)"><line x1="91" y1="156" x2="96" y2="156" stroke="#999" stroke-width="1" class="tick"/></g><g transform="translate(0,20)"><text x="88" y="156" text-anchor="end" font-family="Inter, Liberation Sans, Arial, sans-serif" dominant-baseline="middle" font-size="11px" fill="#666" class="tick-label">$100K</text></g><g transform="translate(0,20)"><line x1="96" y1="78" x2="724" y2="78" stroke="#e0e0e0" stroke-width="1" class="grid-line grid-line-y"/></g><g transform="translate(0,20)"><line x1="91" y1="78" x2="96" y2="78" stroke="#999" stroke-width="1" class="tick"/></g><g transform="translate(0,20)"><text x="88" y="78" text-anchor="end" font-family="Inter, Liberation Sans, Arial, sans-serif" dominant-baseline="middle" font-size="11px" fill="#666" class="tick-label">$150K</text></g><g transform="translate(0,20)"><line x1="96" y1="0" x2="724" y2="0" stroke="#e0e0e0" stroke-width="1" class="grid-line grid-line-y"/></g><g transform="translate(0,20)"><line x1="91" y1="0" x2="96" y2="0" stroke="#999" stroke-width="1" class="tick"/></g><g transform="translate(0,20)"><text x="88" y="0" text-anchor="end" font-family="Inter, Liberation Sans, Arial, sans-serif" dominant-baseline="middle" font-size="11px" fill="#666" class="tick-label">$200K</text></g><g transform="translate(0,20)"><text x="23" y="156" text-anchor="middle" font-family="Inter, Liberation Sans, Arial, sans-serif" dominant-baseline="middle" transform="rotate(-90,23,156)" font-size="12px" fill="#666" class="axis-label">Revenue ($)</text></g><g transform="translate(0,20)"><line x1="724" y1="0" x2="724" y2="312" stroke="#ccc" stroke-width="1" class="axis-line"/></g><g transform="translate(0,20)"><line x1="724" y1="312" x2="729" y2="312" stroke="#999" stroke-width="1" class="tick"/></g><g transform="translate(0,20)"><text x="732" y="312" text-anchor="start" font-family="Inter, Liberation Sans, Arial, sans-serif" dominant-baseline="middle" font-size="11px" fill="#666" class="tick-label">0.0%</text></g><g transform="translate(0,20)"><line x1="724" y1="234" x2="729" y2="234" stroke="#999" stroke-width="1" class="tick"/></g><g transform="translate(0,20)"><text x="732" y="234" text-anchor="start" font-family="Inter, Liberation Sans, Arial, sans-serif" dominant-baseline="middle" font-size="11px" fill="#666" class="tick-label">5.0%</text></g><g transform="translate(0,20)"><line x1="724" y1="156" x2="729" y2="156" stroke="#999" stroke-width="1" class="tick"/></g><g transform="translate(0,20)"><text x="732" y="156" text-anchor="start" font-family="Inter, Liberation Sans, Arial, sans-serif" dominant-baseline="middle" font-size="11px" fill="#666" class="tick-label">10.0%</text></g><g transform="translate(0,20)"><line x1="724" y1="78.00000000000003" x2="729" y2="78.00000000000003" stroke="#999" stroke-width="1" class="tick"/></g><g transform="translate(0,20)"><text x="732" y="78.00000000000003" text-anchor="start" font-family="Inter, Liberation Sans, Arial, sans-serif" dominant-baseline="middle" font-size="11px" fill="#666" class="tick-label">15.0%</text></g><g transform="translate(0,20)"><line x1="724" y1="0" x2="729" y2="0" stroke="#999" stroke-width="1" class="tick"/></g><g transform="translate(0,20)"><text x="732" y="0" text-anchor="start" font-family="Inter, Liberation Sans, Arial, sans-serif" dominant-baseline="middle" font-size="11px" fill="#666" class="tick-label">20.0%</text></g><text x="788" y="176" text-anchor="middle" font-family="Inter, Liberation Sans, Arial, sans-serif" transform="rotate(90,788,176)" font-size="12px" fill="#666" class="axis-label">Profit Margin (%)</text></g><g class="legend"><line x1="307.5" y1="378" x2="319.5" y2="378" stroke="#2E7D9A" stroke-width="2.5" class="legend-symbol legend-line"/><text x="325.5" y="382" text-anchor="start" font-family="Inter, Liberation Sans, Arial, sans-serif" font-size="11px" fill="#333" class="legend-label">Revenue</text><line x1="386.5" y1="378" x2="398.5" y2="378" stroke="#D4A445" stroke-width="2.5" class="legend-symbol legend-line"/><text x="404.5" y="382" text-anchor="start" font-family="Inter, Liberation Sans, Arial, sans-serif" font-size="11px" fill="#333" class="legend-label">Profit Margin</text></g><g class="lines" transform="translate(96,20)"><path d="M42.641975,124.8C68.485597,117 94.329218,101.4 120.17284,101.4C146.016461,101.4 171.860082,127.92 197.703704,127.92C223.547325,127.92 249.390947,74.88 275.234568,74.88C301.078189,74.88 326.921811,82.68 352.765432,82.68C378.609053,82.68 404.452675,63.96 430.296296,57.72C456.139918,51.48 481.983539,45.24 507.82716,45.24C533.670782,45.24 559.514403,58.76 585.358025,65.52" fill="none" stroke="#2E7D9A" stroke-width="2" class="line" data-label="Revenue" data-series="Revenue"/><circle cx="42.64197530864198" cy="124.80000000000001" r="5" fill="#2E7D9A" stroke="#fff" class="chartml-line-dot" data-label="Jan" data-value="$120,000" data-series="Revenue"/><circle cx="120.17283950617286" cy="101.39999999999998" r="5" fill="#2E7D9A" stroke="#fff" class="chartml-line-dot" data-label="Feb" data-value="$135,000" data-series="Revenue"/><circle cx="197.70370370370372" cy="127.92000000000002" r="5" fill="#2E7D9A" stroke="#fff" class="chartml-line-dot" data-label="Mar" data-value="$118,000" data-series="Revenue"/><circle cx="275.2345679012346" cy="74.88" r="5" fill="#2E7D9A" stroke="#fff" class="chartml-line-dot" data-label="Apr" data-value="$152,000" data-series="Revenue"/><circle cx="352.7654320987655" cy="82.68" r="5" fill="#2E7D9A" stroke="#fff" class="chartml-line-dot" data-label="May" data-value="$147,000" data-series="Revenue"/><circle cx="430.29629629629636" cy="57.72000000000003" r="5" fill="#2E7D9A" stroke="#fff" class="chartml-line-dot" data-label="Jun" data-value="$163,000" data-series="Revenue"/><circle cx="507.8271604938272" cy="45.24000000000001" r="5" fill="#2E7D9A" stroke="#fff" class="chartml-line-dot" data-label="Jul" data-value="$171,000" data-series="Revenue"/><circle cx="585.3580246913582" cy="65.51999999999998" r="5" fill="#2E7D9A" stroke="#fff" class="chartml-line-dot" data-label="Aug" data-value="$158,000" data-series="Revenue"/><path d="M42.641975,90.48C68.485597,83.2 94.329218,68.64 120.17284,68.64C146.016461,68.64 171.860082,107.64 197.703704,107.64C223.547325,107.64 249.390947,49.92 275.234568,49.92C301.078189,49.92 326.921811,63.96 352.765432,63.96C378.609053,63.96 404.452675,44.98 430.296296,39C456.139918,33.02 481.983539,28.08 507.82716,28.08C533.670782,28.08 559.514403,46.8 585.358025,56.16" fill="none" stroke="#D4A445" stroke-width="2" class="line" data-label="Profit Margin" data-series="Profit Margin"/><circle cx="42.64197530864198" cy="90.48000000000005" r="5" fill="#D4A445" stroke="#fff" class="chartml-line-dot" data-label="Jan" data-value="14.2%" data-series="Profit Margin"/><circle cx="120.17283950617286" cy="68.64000000000001" r="5" fill="#D4A445" stroke="#fff" class="chartml-line-dot" data-label="Feb" data-value="15.6%" data-series="Profit Margin"/><circle cx="197.70370370370372" cy="107.63999999999999" r="5" fill="#D4A445" stroke="#fff" class="chartml-line-dot" data-label="Mar" data-value="13.1%" data-series="Profit Margin"/><circle cx="275.2345679012346" cy="49.920000000000016" r="5" fill="#D4A445" stroke="#fff" class="chartml-line-dot" data-label="Apr" data-value="16.8%" data-series="Profit Margin"/><circle cx="352.7654320987655" cy="63.960000000000036" r="5" fill="#D4A445" stroke="#fff" class="chartml-line-dot" data-label="May" data-value="15.9%" data-series="Profit Margin"/><circle cx="430.29629629629636" cy="39.00000000000006" r="5" fill="#D4A445" stroke="#fff" class="chartml-line-dot" data-label="Jun" data-value="17.5%" data-series="Profit Margin"/><circle cx="507.8271604938272" cy="28.08000000000004" r="5" fill="#D4A445" stroke="#fff" class="chartml-line-dot" data-label="Jul" data-value="18.2%" data-series="Profit Margin"/><circle cx="585.3580246913582" cy="56.160000000000025" r="5" fill="#D4A445" stroke="#fff" class="chartml-line-dot" data-label="Aug" data-value="16.4%" data-series="Profit Margin"/></g></svg>