<svg xmlns="http://www.w3.org/2000/svg" viewBox="0 0 800 400" width="800" height="400" class="chartml-line"><g class="axes"><g transform="translate(54,0)"><line x1="0" y1="334" x2="716" y2="334" stroke="#ccc" stroke-width="1" class="axis-line"/></g><g transform="translate(54,0)"><line x1="21.75690607734807" y1="334" x2="21.75690607734807" y2="339" stroke="#999" stroke-width="1" class="tick"/></g><g transform="translate(54,0)"><text x="21.75690607734807" y="344" text-anchor="end" font-family="Inter, Liberation Sans, Arial, sans-serif" transform="rotate(-45,21.75690607734807,344)" font-size="11px" fill="#666" class="tick-label">Jan &apos;24</text></g><g transform="translate(54,0)"><line x1="61.31491712707182" y1="334" x2="61.31491712707182" y2="339" stroke="#999" stroke-width="1" class="tick"/></g><g transform="translate(54,0)"><text x="61.31491712707182" y="344" text-anchor="end" font-family="Inter, Liberation Sans, Arial, sans-serif" transform="rotate(-45,61.31491712707182,344)" font-size="11px" fill="#666" class="tick-label">Feb &apos;24</text></g><g transform="translate(54,0)"><line x1="100.8729281767956" y1="334" x2="100.8729281767956" y2="339" stroke="#999" stroke-width="1" class="tick"/></g><g transform="translate(54,0)"><text x="100.8729281767956" y="344" text-anchor="end" font-family="Inter, Liberation Sans, Arial, sans-serif" transform="rotate(-45,100.8729281767956,344)" font-size="11px" fill="#666" class="tick-label">Mar &apos;24</text></g><g transform="translate(54,0)"><line x1="140.43093922651934" y1="334" x2="140.43093922651934" y2="339" stroke="#999" stroke-width="1" class="tick"/></g><g transform="translate(54,0)"><text x="140.43093922651934" y="344" text-anchor="end" font-family="Inter, Liberation Sans, Arial, sans-serif" transform="rotate(-45,140.43093922651934,344)" font-size="11px" fill="#666" class="tick-label">Apr &apos;24</text></g><g transform="translate(54,0)"><line x1="179.98895027624312" y1="334" x2="179.98895027624312" y2="339" stroke="#999" stroke-width="1" class="tick"/></g><g transform="translate(54,0)"><text x="179.98895027624312" y="344" text-anchor="end" font-family="Inter, Liberation Sans, Arial, sans-serif" transform="rotate(-45,179.98895027624312,344)" font-size="11px" fill="#666" class="tick-label">May &apos;24</text></g><g transform="translate(54,0)"><line x1="219.54696132596686" y1="334" x2="219.54696132596686" y2="339" stroke="#999" stroke-width="1" class="tick"/></g><g transform="translate(54,0)"><text x="219.54696132596686" y="344" text-anchor="end" font-family="Inter, Liberation Sans, Arial, sans-serif" transform="rotate(-45,219.54696132596686,344)" font-size="11px" fill="#666" class="tick-label">Jun &apos;24</text></g><g transform="translate(54,0)"><line x1="259.10497237569064" y1="334" x2="259.10497237569064" y2="339" stroke="#999" stroke-width="1" class="tick"/></g><g transform="translate(54,0)"><text x="259.10497237569064" y="344" text-anchor="end" font-family="Inter, Liberation Sans, Arial, sans-serif" transform="rotate(-45,259.10497237569064,344)" font-size="11px" fill="#666" class="tick-label">Jul &apos;24</text></g><g transform="translate(54,0)"><line x1="298.6629834254144" y1="334" x2="298.6629834254144" y2="339" stroke="#999" stroke-width="1" class="tick"/></g><g transform="translate(54,0)"><text x="298.6629834254144" y="344" text-anchor="end" font-family="Inter, Liberation Sans, Arial, sans-serif" transform="rotate(-45,298.6629834254144,344)" font-size="11px" fill="#666" class="tick-label">Aug &apos;24</text></g><g transform="translate(54,0)"><line x1="338.2209944751381" y1="334" x2="338.2209944751381" y2="339" stroke="#999" stroke-width="1" class="tick"/></g><g transform="translate(54,0)"><text x="338.2209944751381" y="344" text-anchor="end" font-family="Inter, Liberation Sans, Arial, sans-serif" transform="rotate(-45,338.2209944751381,344)" font-size="11px" fill="#666" class="tick-label">Sep &apos;24</text></g><g transform="translate(54,0)"><line x1="377.7790055248619" y1="334" x2="377.7790055248619" y2="339" stroke="#999" stroke-width="1" class="tick"/></g><g transform="translate(54,0)"><text x="377.7790055248619" y="344" text-anchor="end" font-family="Inter, Liberation Sans, Arial, sans-serif" transform="rotate(-45,377.7790055248619,344)" font-size="11px" fill="#666" class="tick-label">Oct &apos;24</text></g><g transform="translate(54,0)"><line x1="417.3370165745856" y1="334" x2="417.3370165745856" y2="339" stroke="#999" stroke-width="1" class="tick"/></g><g transform="translate(54,0)"><text x="417.3370165745856" y="344" text-anchor="end" font-family="Inter, Liberation Sans, Arial, sans-serif" transform="rotate(-45,417.3370165745856,344)" font-size="11px" fill="#666" class="tick-label">Nov &apos;24</text></g><g transform="translate(54,0)"><line x1="456.8950276243094" y1="334" x2="456.8950276243094" y2="339" stroke="#999" stroke-width="1" class="tick"/></g><g transform="translate(54,0)"><text x="456.8950276243094" y="344" text-anchor="end" font-family="Inter, Liberation Sans, Arial, sans-serif" transform="rotate(-45,456.8950276243094,344)" font-size="11px" fill="#666" class="tick-label">Dec &apos;24</text></g><g transform="translate(54,0)"><line x1="496.45303867403317" y1="334" x2="496.45303867403317" y2="339" stroke="#999" stroke-width="1" class="tick"/></g><g transform="translate(54,0)"><text x="496.45303867403317" y="344" text-anchor="end" font-family="Inter, Liberation Sans, Arial, sans-serif" transform="rotate(-45,496.45303867403317,344)" font-size="11px" fill="#666" class="tick-label">Jan &apos;25</text></g><g transform="translate(54,0)"><line x1="536.011049723757" y1="334" x2="536.011049723757" y2="339" stroke="#999" stroke-width="1" class="tick"/></g><g transform="translate(54,0)"><text x="536.011049723757" y="344" text-anchor="end" font-family="Inter, Liberation Sans, Arial, sans-serif" transform="rotate(-45,536.011049723757,344)" font-size="11px" fill="#666" class="tick-label">Feb &apos;25</text></g><g transform="translate(54,0)"><line x1="575.5690607734807" y1="334" x2="575.5690607734807" y2="339" stroke="#999" stroke-width="1" class="tick"/></g><g transform="translate(54,0)"><text x="575.5690607734807" y="344" text-anchor="end" font-family="Inter, Liberation Sans, Arial, sans-serif" transform="rotate(-45,575.5690607734807,344)" font-size="11px" fill="#666" class="tick-label">Mar &apos;25</text></g><g transform="translate(54,0)"><line x1="615.1270718232045" y1="334" x2="615.1270718232045" y2="339" stroke="#999" stroke-width="1" class="tick"/></g><g transform="translate(54,0)"><text x="615.1270718232045" y="344" text-anchor="end" font-family="Inter, Liberation Sans, Arial, sans-serif" transform="rotate(-45,615.1270718232045,344)" font-size="11px" fill="#666" class="tick-label">Apr &apos;25</text></g><g transform="translate(54,0)"><line x1="654.6850828729282" y1="334" x2="654.6850828729282" y2="339" stroke="#999" stroke-width="1" class="tick"/></g><g transform="translate(54,0)"><text x="654.6850828729282" y="344" text-anchor="end" font-family="Inter, Liberation Sans, Arial, sans-serif" transform="rotate(-45,654.6850828729282,344)" font-size="11px" fill="#666" class="tick-label">May &apos;25</text></g><g transform="translate(54,0)"><line x1="694.243093922652" y1="334" x2="694.243093922652" y2="339" stroke="#999" stroke-width="1" class="tick"/></g><g transform="translate(54,0)"><text x="694.243093922652" y="344" text-anchor="end" font-family="Inter, Liberation Sans, Arial, sans-serif" transform="rotate(-45,694.243093922652,344)" font-size="11px" fill="#666" class="tick-label">Jun &apos;25</text></g><g transform="translate(0,20)"><line x1="54" y1="0" x2="54" y2="314" stroke="#ccc" stroke-width="1" class="axis-line"/></g><g transform="translate(0,20)"><line x1="54" y1="314" x2="770" y2="314" stroke="#e0e0e0" stroke-width="1" class="grid-line grid-line-y"/></g><g transform="translate(0,20)"><line x1="49" y1="314" x2="54" y2="314" stroke="#999" stroke-width="1" class="tick"/></g><g transform="translate(0,20)"><text x="46" y="314" text-anchor="end" font-family="Inter, Liberation Sans, Arial, sans-serif" dominant-baseline="middle" font-size="11px" fill="#666" class="tick-label">0</text></g><g transform="translate(0,20)"><line x1="54" y1="269.14285714285717" x2="770" y2="269.14285714285717" stroke="#e0e0e0" stroke-width="1" class="grid-line grid-line-y"/></g><g transform="translate(0,20)"><line x1="49" y1="269.14285714285717" x2="54" y2="269.14285714285717" stroke="#999" stroke-width="1" class="tick"/></g><g transform="translate(0,20)"><text x="46" y="269.14285714285717" text-anchor="end" font-family="Inter, Liberation Sans, Arial, sans-serif" dominant-baseline="middle" font-size="11px" fill="#666" class="tick-label">5,000</text></g><g transform="translate(0,20)"><line x1="54" y1="224.28571428571428" x2="770" y2="224.28571428571428" stroke="#e0e0e0" stroke-width="1" class="grid-line grid-line-y"/></g><g transform="translate(0,20)"><line x1="49" y1="224.28571428571428" x2="54" y2="224.28571428571428" stroke="#999" stroke-width="1" class="tick"/></g><g transform="translate(0,20)"><text x="46" y="224.28571428571428" text-anchor="end" font-family="Inter, Liberation Sans, Arial, sans-serif" dominant-baseline="middle" font-size="11px" fill="#666" class="tick-label">10,000</text></g><g transform="translate(0,20)"><line x1="54" y1="179.42857142857144" x2="770" y2="179.42857142857144" stroke="#e0e0e0" stroke-width="1" class="grid-line grid-line-y"/></g><g transform="translate(0,20)"><line x1="49" y1="179.42857142857144" x2="54" y2="179.42857142857144" stroke="#999" stroke-width="1" class="tick"/></g><g transform="translate(0,20)"><text x="46" y="179.42857142857144" text-anchor="end" font-family="Inter, Liberation Sans, Arial, sans-serif" dominant-baseline="middle" font-size="11px" fill="#666" class="tick-label">15,000</text></g><g transform="translate(0,20)"><line x1="54" y1="134.57142857142858" x2="770" y2="134.57142857142858" stroke="#e0e0e0" stroke-width="1" class="grid-line grid-line-y"/></g><g transform="translate(0,20)"><line x1="49" y1="134.57142857142858" x2="54" y2="134.57142857142858" stroke="#999" stroke-width="1" class="tick"/></g><g transform="translate(0,20)"><text x="46" y="134.57142857142858" text-anchor="end" font-family="Inter, Liberation Sans, Arial, sans-serif" dominant-baseline="middle" font-size="11px" fill="#666" class="tick-label">20,000</text></g><g transform="translate(0,20)"><line x1="54" y1="89.71428571428572" x2="770" y2="89.71428571428572" stroke="#e0e0e0" stroke-width="1" class="grid-line grid-line-y"/></g><g transform="translate(0,20)"><line x1="49" y1="89.71428571428572" x2="54" y2="89.71428571428572" stroke="#999" stroke-width="1" class="tick"/></g><g transform="translate(0,20)"><text x="46" y="89.71428571428572" text-anchor="end" font-family="Inter, Liberation Sans, Arial, sans-serif" dominant-baseline="middle" font-size="11px" fill="#666" class="tick-label">25,000</text></g><g transform="translate(0,20)"><line x1="54" y1="44.85714285714289" x2="770" y2="44.85714285714289" stroke="#e0e0e0" stroke-width="1" class="grid-line grid-line-y"/></g><g transform="translate(0,20)"><line x1="49" y1="44.85714285714289" x2="54" y2="44.85714285714289" stroke="#999" stroke-width="1" class="tick"/></g><g transform="translate(0,20)"><text x="46" y="44.85714285714289" text-anchor="end" font-family="Inter, Liberation Sans, Arial, sans-serif" dominant-baseline="middle" font-size="11px" fill="#666" class="tick-label">30,000</text></g><g transform="translate(0,20)"><line x1="54" y1="0" x2="770" y2="0" stroke="#e0e0e0" stroke-width="1" class="grid-line grid-line-y"/></g><g transform="translate(0,20)"><line x1="49" y1="0" x2="54" y2="0" stroke="#999" stroke-width="1" class="tick"/></g><g transform="translate(0,20)"><text x="46" y="0" text-anchor="end" font-family="Inter, Liberation Sans, Arial, sans-serif" dominant-baseline="middle" font-size="11px" fill="#666" class="tick-label">35,000</text></g></g><g class="lines" transform="translate(54,20)"><path d="M21.756906,202.754286C34.94291,200.660952 48.128913,199.165714 61.314917,196.474286C74.500921,193.782857 87.686924,186.605714 100.872928,186.605714C114.058932,186.605714 127.244936,190.194286 140.430939,190.194286C153.616943,190.194286 166.802947,182.568571 179.98895,178.531429C193.174954,174.494286 206.360958,165.971429 219.546961,165.971429C232.732965,165.971429 245.918969,171.354286 259.104972,171.354286C272.290976,171.354286 285.47698,164.027619 298.662983,159.691429C311.848987,155.355238 325.034991,148.77619 338.220994,145.337143C351.406998,141.898095 364.593002,141.000952 377.779006,139.057143C390.965009,137.113333 404.151013,137.113333 417.337017,133.674286C430.52302,130.235238 443.709024,122.011429 456.895028,118.422857C470.081031,114.834286 483.267035,115.432381 496.453039,112.142857C509.639042,108.853333 522.825046,102.722857 536.01105,98.685714C549.197053,94.648571 562.383057,92.106667 575.569061,87.92C588.755064,83.733333 601.941068,77.901905 615.127072,73.565714C628.313076,69.229524 641.499079,67.435238 654.685083,61.902857C667.871087,56.370476 681.05709,47.548571 694.243094,40.371429" fill="none" stroke="#2E7D9A" stroke-width="2" class="line"/><circle cx="21.75690607734807" cy="202.75428571428574" r="5" fill="#2E7D9A" stroke="#fff" class="chartml-line-dot" data-label="2024-01-01" data-value="12,400"/><circle cx="61.31491712707182" cy="196.4742857142857" r="5" fill="#2E7D9A" stroke="#fff" class="chartml-line-dot" data-label="2024-02-01" data-value="13,100"/><circle cx="100.8729281767956" cy="186.6057142857143" r="5" fill="#2E7D9A" stroke="#fff" class="chartml-line-dot" data-label="2024-03-01" data-value="14,200"/><circle cx="140.43093922651934" cy="190.1942857142857" r="5" fill="#2E7D9A" stroke="#fff" class="chartml-line-dot" data-label="2024-04-01" data-value="13,800"/><circle cx="179.98895027624312" cy="178.53142857142856" r="5" fill="#2E7D9A" stroke="#fff" class="chartml-line-dot" data-label="2024-05-01" data-value="15,100"/><circle cx="219.54696132596686" cy="165.97142857142856" r="5" fill="#2E7D9A" stroke="#fff" class="chartml-line-dot" data-label="2024-06-01" data-value="16,500"/><circle cx="259.10497237569064" cy="171.3542857142857" r="5" fill="#2E7D9A" stroke="#fff" class="chartml-line-dot" data-label="2024-07-01" data-value="15,900"/><circle cx="298.6629834254144" cy="159.69142857142856" r="5" fill="#2E7D9A" stroke="#fff" class="chartml-line-dot" data-label="2024-08-01" data-value="17,200"/><circle cx="338.2209944751381" cy="145.33714285714285" r="5" fill="#2E7D9A" stroke="#fff" class="chartml-line-dot" data-label="2024-09-01" data-value="18,800"/><circle cx="377.7790055248619" cy="139.05714285714285" r="5" fill="#2E7D9A" stroke="#fff" class="chartml-line-dot" data-label="2024-10-01" data-value="19,500"/><circle cx="417.3370165745856" cy="133.6742857142857" r="5" fill="#2E7D9A" stroke="#fff" class="chartml-line-dot" data-label="2024-11-01" data-value="20,100"/><circle cx="456.8950276243094" cy="118.42285714285714" r="5" fill="#2E7D9A" stroke="#fff" class="chartml-line-dot" data-label="2024-12-01" data-value="21,800"/><circle cx="496.45303867403317" cy="112.14285714285714" r="5" fill="#2E7D9A" stroke="#fff" class="chartml-line-dot" data-label="2025-01-01" data-value="22,500"/><circle cx="536.011049723757" cy="98.68571428571428" r="5" fill="#2E7D9A" stroke="#fff" class="chartml-line-dot" data-label="2025-02-01" data-value="24,000"/><circle cx="575.5690607734807" cy="87.92000000000002" r="5" fill="#2E7D9A" stroke="#fff" class="chartml-line-dot" data-label="2025-03-01" data-value="25,200"/><circle cx="615.1270718232045" cy="73.56571428571431" r="5" fill="#2E7D9A" stroke="#fff" class="chartml-line-dot" data-label="2025-04-01" data-value="26,800"/><circle cx="654.6850828729282" cy="61.90285714285716" r="5" fill="#2E7D9A" stroke="#fff" class="chartml-line-dot" data-label="2025-05-01" data-value="28,100"/><circle cx="694.243093922652" cy="40.37142857142857" r="5" fill="#2E7D9A" stroke="#fff" class="chartml-line-dot" data-label="2025-06-01" data-value="30,500"/></g></svg>