<svg xmlns="http://www.w3.org/2000/svg" viewBox="0 0 800 400" width="800" height="400" class="chartml-line"><g class="axes"><g transform="translate(54,0)"><line x1="0" y1="360" x2="716" y2="360" stroke="#374151" stroke-width="1" class="axis-line"/></g><g transform="translate(54,0)"><line x1="19.592039800995025" y1="360" x2="19.592039800995025" y2="365" stroke="#374151" stroke-width="1" class="tick"/></g><g transform="translate(54,0)"><text x="19.592039800995025" y="378" text-anchor="middle" font-family="Inter, Liberation Sans, Arial, sans-serif" font-size="12px" fill="#6b7280" class="tick-label axis-label">Wk1</text></g><g transform="translate(54,0)"><line x1="55.21393034825871" y1="360" x2="55.21393034825871" y2="365" stroke="#374151" stroke-width="1" class="tick"/></g><g transform="translate(54,0)"><text x="55.21393034825871" y="378" text-anchor="middle" font-family="Inter, Liberation Sans, Arial, sans-serif" font-size="12px" fill="#6b7280" class="tick-label axis-label">Wk2</text></g><g transform="translate(54,0)"><line x1="90.8358208955224" y1="360" x2="90.8358208955224" y2="365" stroke="#374151" stroke-width="1" class="tick"/></g><g transform="translate(54,0)"><text x="90.8358208955224" y="378" text-anchor="middle" font-family="Inter, Liberation Sans, Arial, sans-serif" font-size="12px" fill="#6b7280" class="tick-label axis-label">Wk3</text></g><g transform="translate(54,0)"><line x1="126.45771144278606" y1="360" x2="126.45771144278606" y2="365" stroke="#374151" stroke-width="1" class="tick"/></g><g transform="translate(54,0)"><text x="126.45771144278606" y="378" text-anchor="middle" font-family="Inter, Liberation Sans, Arial, sans-serif" font-size="12px" fill="#6b7280" class="tick-label axis-label">Wk4</text></g><g transform="translate(54,0)"><line x1="162.07960199004975" y1="360" x2="162.07960199004975" y2="365" stroke="#374151" stroke-width="1" class="tick"/></g><g transform="translate(54,0)"><text x="162.07960199004975" y="378" text-anchor="middle" font-family="Inter, Liberation Sans, Arial, sans-serif" font-size="12px" fill="#6b7280" class="tick-label axis-label">Wk5</text></g><g transform="translate(54,0)"><line x1="197.70149253731344" y1="360" x2="197.70149253731344" y2="365" stroke="#374151" stroke-width="1" class="tick"/></g><g transform="translate(54,0)"><text x="197.70149253731344" y="378" text-anchor="middle" font-family="Inter, Liberation Sans, Arial, sans-serif" font-size="12px" fill="#6b7280" class="tick-label axis-label">Wk6</text></g><g transform="translate(54,0)"><line x1="233.3233830845771" y1="360" x2="233.3233830845771" y2="365" stroke="#374151" stroke-width="1" class="tick"/></g><g transform="translate(54,0)"><text x="233.3233830845771" y="378" text-anchor="middle" font-family="Inter, Liberation Sans, Arial, sans-serif" font-size="12px" fill="#6b7280" class="tick-label axis-label">Wk7</text></g><g transform="translate(54,0)"><line x1="268.9452736318408" y1="360" x2="268.9452736318408" y2="365" stroke="#374151" stroke-width="1" class="tick"/></g><g transform="translate(54,0)"><text x="268.9452736318408" y="378" text-anchor="middle" font-family="Inter, Liberation Sans, Arial, sans-serif" font-size="12px" fill="#6b7280" class="tick-label axis-label">Wk8</text></g><g transform="translate(54,0)"><line x1="304.5671641791045" y1="360" x2="304.5671641791045" y2="365" stroke="#374151" stroke-width="1" class="tick"/></g><g transform="translate(54,0)"><text x="304.5671641791045" y="378" text-anchor="middle" font-family="Inter, Liberation Sans, Arial, sans-serif" font-size="12px" fill="#6b7280" class="tick-label axis-label">Wk9</text></g><g transform="translate(54,0)"><line x1="340.18905472636817" y1="360" x2="340.18905472636817" y2="365" stroke="#374151" stroke-width="1" class="tick"/></g><g transform="translate(54,0)"><text x="340.18905472636817" y="378" text-anchor="middle" font-family="Inter, Liberation Sans, Arial, sans-serif" font-size="12px" fill="#6b7280" class="tick-label axis-label">Wk10</text></g><g transform="translate(54,0)"><line x1="375.8109452736319" y1="360" x2="375.8109452736319" y2="365" stroke="#374151" stroke-width="1" class="tick"/></g><g transform="translate(54,0)"><text x="375.8109452736319" y="378" text-anchor="middle" font-family="Inter, Liberation Sans, Arial, sans-serif" font-size="12px" fill="#6b7280" class="tick-label axis-label">Wk11</text></g><g transform="translate(54,0)"><line x1="411.43283582089555" y1="360" x2="411.43283582089555" y2="365" stroke="#374151" stroke-width="1" class="tick"/></g><g transform="translate(54,0)"><text x="411.43283582089555" y="378" text-anchor="middle" font-family="Inter, Liberation Sans, Arial, sans-serif" font-size="12px" fill="#6b7280" class="tick-label axis-label">Wk12</text></g><g transform="translate(54,0)"><line x1="447.0547263681592" y1="360" x2="447.0547263681592" y2="365" stroke="#374151" stroke-width="1" class="tick"/></g><g transform="translate(54,0)"><text x="447.0547263681592" y="378" text-anchor="middle" font-family="Inter, Liberation Sans, Arial, sans-serif" font-size="12px" fill="#6b7280" class="tick-label axis-label">Wk13</text></g><g transform="translate(54,0)"><line x1="482.6766169154229" y1="360" x2="482.6766169154229" y2="365" stroke="#374151" stroke-width="1" class="tick"/></g><g transform="translate(54,0)"><text x="482.6766169154229" y="378" text-anchor="middle" font-family="Inter, Liberation Sans, Arial, sans-serif" font-size="12px" fill="#6b7280" class="tick-label axis-label">Wk14</text></g><g transform="translate(54,0)"><line x1="518.2985074626865" y1="360" x2="518.2985074626865" y2="365" stroke="#374151" stroke-width="1" class="tick"/></g><g transform="translate(54,0)"><text x="518.2985074626865" y="378" text-anchor="middle" font-family="Inter, Liberation Sans, Arial, sans-serif" font-size="12px" fill="#6b7280" class="tick-label axis-label">Wk15</text></g><g transform="translate(54,0)"><line x1="553.9203980099502" y1="360" x2="553.9203980099502" y2="365" stroke="#374151" stroke-width="1" class="tick"/></g><g transform="translate(54,0)"><text x="553.9203980099502" y="378" text-anchor="middle" font-family="Inter, Liberation Sans, Arial, sans-serif" font-size="12px" fill="#6b7280" class="tick-label axis-label">Wk16</text></g><g transform="translate(54,0)"><line x1="589.5422885572139" y1="360" x2="589.5422885572139" y2="365" stroke="#374151" stroke-width="1" class="tick"/></g><g transform="translate(54,0)"><text x="589.5422885572139" y="378" text-anchor="middle" font-family="Inter, Liberation Sans, Arial, sans-serif" font-size="12px" fill="#6b7280" class="tick-label axis-label">Wk17</text></g><g transform="translate(54,0)"><line x1="625.1641791044775" y1="360" x2="625.1641791044775" y2="365" stroke="#374151" stroke-width="1" class="tick"/></g><g transform="translate(54,0)"><text x="625.1641791044775" y="378" text-anchor="middle" font-family="Inter, Liberation Sans, Arial, sans-serif" font-size="12px" fill="#6b7280" class="tick-label axis-label">Wk18</text></g><g transform="translate(54,0)"><line x1="660.7860696517412" y1="360" x2="660.7860696517412" y2="365" stroke="#374151" stroke-width="1" class="tick"/></g><g transform="translate(54,0)"><text x="660.7860696517412" y="378" text-anchor="middle" font-family="Inter, Liberation Sans, Arial, sans-serif" font-size="12px" fill="#6b7280" class="tick-label axis-label">Wk19</text></g><g transform="translate(54,0)"><line x1="696.407960199005" y1="360" x2="696.407960199005" y2="365" stroke="#374151" stroke-width="1" class="tick"/></g><g transform="translate(54,0)"><text x="696.407960199005" y="378" text-anchor="middle" font-family="Inter, Liberation Sans, Arial, sans-serif" font-size="12px" fill="#6b7280" class="tick-label axis-label">Wk20</text></g><g transform="translate(0,20)"><line x1="54" y1="0" x2="54" y2="340" stroke="#374151" stroke-width="1" class="axis-line"/></g><g transform="translate(0,20)"><line x1="54" y1="340" x2="770" y2="340" stroke="#e0e0e0" stroke-width="1" class="grid-line grid-line-y"/></g><g transform="translate(0,20)"><line x1="49" y1="340" x2="54" y2="340" stroke="#374151" stroke-width="1" class="tick"/></g><g transform="translate(0,20)"><text x="46" y="340" text-anchor="end" font-family="Inter, Liberation Sans, Arial, sans-serif" dominant-baseline="middle" font-size="12px" fill="#6b7280" class="tick-label tick-value">0</text></g><g transform="translate(0,20)"><line x1="54" y1="272" x2="770" y2="272" stroke="#e0e0e0" stroke-width="1" class="grid-line grid-line-y"/></g><g transform="translate(0,20)"><line x1="49" y1="272" x2="54" y2="272" stroke="#374151" stroke-width="1" class="tick"/></g><g transform="translate(0,20)"><text x="46" y="272" text-anchor="end" font-family="Inter, Liberation Sans, Arial, sans-serif" dominant-baseline="middle" font-size="12px" fill="#6b7280" class="tick-label tick-value">5,000</text></g><g transform="translate(0,20)"><line x1="54" y1="204" x2="770" y2="204" stroke="#e0e0e0" stroke-width="1" class="grid-line grid-line-y"/></g><g transform="translate(0,20)"><line x1="49" y1="204" x2="54" y2="204" stroke="#374151" stroke-width="1" class="tick"/></g><g transform="translate(0,20)"><text x="46" y="204" text-anchor="end" font-family="Inter, Liberation Sans, Arial, sans-serif" dominant-baseline="middle" font-size="12px" fill="#6b7280" class="tick-label tick-value">10,000</text></g><g transform="translate(0,20)"><line x1="54" y1="136" x2="770" y2="136" stroke="#e0e0e0" stroke-width="1" class="grid-line grid-line-y"/></g><g transform="translate(0,20)"><line x1="49" y1="136" x2="54" y2="136" stroke="#374151" stroke-width="1" class="tick"/></g><g transform="translate(0,20)"><text x="46" y="136" text-anchor="end" font-family="Inter, Liberation Sans, Arial, sans-serif" dominant-baseline="middle" font-size="12px" fill="#6b7280" class="tick-label tick-value">15,000</text></g><g transform="translate(0,20)"><line x1="54" y1="68" x2="770" y2="68" stroke="#e0e0e0" stroke-width="1" class="grid-line grid-line-y"/></g><g transform="translate(0,20)"><line x1="49" y1="68" x2="54" y2="68" stroke="#374151" stroke-width="1" class="tick"/></g><g transform="translate(0,20)"><text x="46" y="68" text-anchor="end" font-family="Inter, Liberation Sans, Arial, sans-serif" dominant-baseline="middle" font-size="12px" fill="#6b7280" class="tick-label tick-value">20,000</text></g><g transform="translate(0,20)"><line x1="54" y1="0" x2="770" y2="0" stroke="#e0e0e0" stroke-width="1" class="grid-line grid-line-y"/></g><g transform="translate(0,20)"><line x1="49" y1="0" x2="54" y2="0" stroke="#374151" stroke-width="1" class="tick"/></g><g transform="translate(0,20)"><text x="46" y="0" text-anchor="end" font-family="Inter, Liberation Sans, Arial, sans-serif" dominant-baseline="middle" font-size="12px" fill="#6b7280" class="tick-label tick-value">25,000</text></g></g><g class="lines" transform="translate(54,20)"><path d="M19.59204,171.36C31.466003,168.186667 43.339967,161.84 55.21393,161.84C67.087894,161.84 78.961857,165.92 90.835821,165.92C102.709784,165.92 114.583748,152.093333 126.457711,146.88C138.331675,141.666667 150.205638,134.64 162.079602,134.64C173.953566,134.64 185.827529,141.44 197.701493,141.44C209.575456,141.44 221.44942,128.973333 233.323383,125.12C245.197347,121.266667 257.07131,118.32 268.945274,118.32C280.819237,118.32 292.693201,123.76 304.567164,123.76C316.441128,123.76 328.315091,110.386667 340.189055,106.08C352.063018,101.773333 363.936982,100.64 375.810945,97.92C387.684909,95.2 399.558872,89.76 411.432836,89.76C423.306799,89.76 435.180763,100.64 447.054726,100.64C458.92869,100.64 470.802653,85.226667 482.676617,80.24C494.55058,75.253333 506.424544,73.893333 518.298507,70.72C530.172471,67.546667 542.046434,61.2 553.920398,61.2C565.794362,61.2 577.668325,69.36 589.542289,69.36C601.416252,69.36 613.290216,55.306667 625.164179,50.32C637.038143,45.333333 648.912106,44.2 660.78607,39.44C672.660033,34.68 684.533997,27.653333 696.40796,21.76" fill="none" stroke="#2E7D9A" stroke-width="2" class="chartml-line-path series-line"/><circle cx="19.592039800995025" cy="171.36" r="5" fill="#2E7D9A" stroke="#ffffff" class="chartml-line-dot dot-marker" data-label="Wk1" data-value="12,400"/><circle cx="55.21393034825871" cy="161.84" r="5" fill="#2E7D9A" stroke="#ffffff" class="chartml-line-dot dot-marker" data-label="Wk2" data-value="13,100"/><circle cx="90.8358208955224" cy="165.92" r="5" fill="#2E7D9A" stroke="#ffffff" class="chartml-line-dot dot-marker" data-label="Wk3" data-value="12,800"/><circle cx="126.45771144278606" cy="146.88000000000002" r="5" fill="#2E7D9A" stroke="#ffffff" class="chartml-line-dot dot-marker" data-label="Wk4" data-value="14,200"/><circle cx="162.07960199004975" cy="134.64000000000001" r="5" fill="#2E7D9A" stroke="#ffffff" class="chartml-line-dot dot-marker" data-label="Wk5" data-value="15,100"/><circle cx="197.70149253731344" cy="141.44000000000003" r="5" fill="#2E7D9A" stroke="#ffffff" class="chartml-line-dot dot-marker" data-label="Wk6" data-value="14,600"/><circle cx="233.3233830845771" cy="125.12" r="5" fill="#2E7D9A" stroke="#ffffff" class="chartml-line-dot dot-marker" data-label="Wk7" data-value="15,800"/><circle cx="268.9452736318408" cy="118.32" r="5" fill="#2E7D9A" stroke="#ffffff" class="chartml-line-dot dot-marker" data-label="Wk8" data-value="16,300"/><circle cx="304.5671641791045" cy="123.75999999999999" r="5" fill="#2E7D9A" stroke="#ffffff" class="chartml-line-dot dot-marker" data-label="Wk9" data-value="15,900"/><circle cx="340.18905472636817" cy="106.08000000000001" r="5" fill="#2E7D9A" stroke="#ffffff" class="chartml-line-dot dot-marker" data-label="Wk10" data-value="17,200"/><circle cx="375.8109452736319" cy="97.92000000000002" r="5" fill="#2E7D9A" stroke="#ffffff" class="chartml-line-dot dot-marker" data-label="Wk11" data-value="17,800"/><circle cx="411.43283582089555" cy="89.75999999999999" r="5" fill="#2E7D9A" stroke="#ffffff" class="chartml-line-dot dot-marker" data-label="Wk12" data-value="18,400"/><circle cx="447.0547263681592" cy="100.64000000000001" r="5" fill="#2E7D9A" stroke="#ffffff" class="chartml-line-dot dot-marker" data-label="Wk13" data-value="17,600"/><circle cx="482.6766169154229" cy="80.24000000000001" r="5" fill="#2E7D9A" stroke="#ffffff" class="chartml-line-dot dot-marker" data-label="Wk14" data-value="19,100"/><circle cx="518.2985074626865" cy="70.71999999999997" r="5" fill="#2E7D9A" stroke="#ffffff" class="chartml-line-dot dot-marker" data-label="Wk15" data-value="19,800"/><circle cx="553.9203980099502" cy="61.19999999999999" r="5" fill="#2E7D9A" stroke="#ffffff" class="chartml-line-dot dot-marker" data-label="Wk16" data-value="20,500"/><circle cx="589.5422885572139" cy="69.36000000000001" r="5" fill="#2E7D9A" stroke="#ffffff" class="chartml-line-dot dot-marker" data-label="Wk17" data-value="19,900"/><circle cx="625.1641791044775" cy="50.31999999999999" r="5" fill="#2E7D9A" stroke="#ffffff" class="chartml-line-dot dot-marker" data-label="Wk18" data-value="21,300"/><circle cx="660.7860696517412" cy="39.44" r="5" fill="#2E7D9A" stroke="#ffffff" class="chartml-line-dot dot-marker" data-label="Wk19" data-value="22,100"/><circle cx="696.407960199005" cy="21.75999999999999" r="5" fill="#2E7D9A" stroke="#ffffff" class="chartml-line-dot dot-marker" data-label="Wk20" data-value="23,400"/></g></svg>